<svg xmlns="http://www.w3.org/2000/svg" xml:space="preserve" width="44.85" height="28.22" viewBox="0 0 11.867 7.467"><g transform="translate(-38.254 -2.094)"><ellipse cx="47.362" cy="4.847" rx="2.358" ry="2.353" style="fill:#b72327;fill-opacity:1;stroke:#3e3e3f;stroke-width:.8;stroke-linecap:round;stroke-dasharray:none;stroke-dashoffset:5.28;stroke-opacity:1;paint-order:stroke markers fill"/><ellipse cx="45.246" cy="4.847" rx="2.358" ry="2.353" style="fill:#e0ca20;fill-opacity:1;stroke:#3e3e3f;stroke-width:.8;stroke-linecap:round;stroke-dasharray:none;stroke-dashoffset:5.28;stroke-opacity:1;paint-order:stroke markers fill"/><path d="M43.572 6.504c1.51-.276 2.74-.956 4.021-1.82.155 1.478-.952 2.095-1.348 2.305-1.314.54-2.16-.02-2.673-.485z" style="fill:#817613;fill-opacity:1;stroke:#3e3e3f;stroke-width:.8;stroke-linecap:butt;stroke-linejoin:miter;stroke-dasharray:none;stroke-opacity:1"/><ellipse cx="43.129" cy="4.847" rx="2.358" ry="2.353" style="fill:#3d494e;fill-opacity:1;stroke:#3e3e3f;stroke-width:.8;stroke-linecap:round;stroke-dasharray:none;stroke-dashoffset:5.28;stroke-opacity:1;paint-order:stroke markers fill"/><path d="M41.455 6.504c1.51-.276 2.74-.956 4.021-1.82.156 1.478-.952 2.095-1.348 2.305-1.313.54-2.16-.02-2.673-.485Z" style="fill:#232a2e;fill-opacity:1;stroke:#3e3e3f;stroke-width:.8;stroke-linecap:butt;stroke-linejoin:miter;stroke-dasharray:none;stroke-opacity:1"/><ellipse cx="41.012" cy="4.847" rx="2.358" ry="2.353" style="fill:#11a3c8;fill-opacity:1;stroke:#3e3e3f;stroke-width:.8;stroke-linecap:round;stroke-dasharray:none;stroke-dashoffset:5.28;stroke-opacity:1;paint-order:stroke markers fill"/><path d="M38.878 8.382h10.623v.779H38.878z" style="fill:#596368;fill-opacity:1;stroke:#3e3e3f;stroke-width:.8;stroke-linecap:round;stroke-dasharray:none;stroke-dashoffset:5.28;stroke-opacity:1;paint-order:stroke markers fill"/><g transform="translate(-17.626)"><ellipse cx="64.988" cy="4.847" rx="2.358" ry="2.353" style="fill:#b72327;fill-opacity:1;stroke:none;stroke-width:.0830927;stroke-linecap:round;stroke-dasharray:none;stroke-dashoffset:5.28;stroke-opacity:1;paint-order:stroke markers fill"/><path d="M63.314 6.504c1.51-.276 2.74-.956 4.022-1.82.155 1.478-.952 2.095-1.348 2.305-1.314.54-2.16-.02-2.674-.485Z" style="fill:#691417;fill-opacity:1;stroke:none;stroke-width:.0732833px;stroke-linecap:butt;stroke-linejoin:miter;stroke-opacity:1"/><ellipse cx="62.872" cy="4.847" rx="2.358" ry="2.353" style="fill:#e0ca20;fill-opacity:1;stroke:none;stroke-width:.0830927;stroke-linecap:round;stroke-dasharray:none;stroke-dashoffset:5.28;stroke-opacity:1;paint-order:stroke markers fill"/><path d="M61.198 6.504c1.51-.276 2.74-.956 4.021-1.82.155 1.478-.952 2.095-1.348 2.305-1.313.54-2.16-.02-2.673-.485z" style="fill:#817613;fill-opacity:1;stroke:none;stroke-width:.0732833px;stroke-linecap:butt;stroke-linejoin:miter;stroke-opacity:1"/><ellipse cx="60.755" cy="4.847" rx="2.358" ry="2.353" style="fill:#3d494e;fill-opacity:1;stroke:none;stroke-width:.0830927;stroke-linecap:round;stroke-dasharray:none;stroke-dashoffset:5.28;stroke-opacity:1;paint-order:stroke markers fill"/><path d="M59.081 6.504c1.51-.276 2.74-.956 4.021-1.82.156 1.478-.951 2.095-1.347 2.305-1.314.54-2.16-.02-2.674-.485Z" style="fill:#232a2e;fill-opacity:1;stroke:none;stroke-width:.0732833px;stroke-linecap:butt;stroke-linejoin:miter;stroke-opacity:1"/><ellipse cx="58.638" cy="4.847" rx="2.358" ry="2.353" style="fill:#11a3c8;fill-opacity:1;stroke:none;stroke-width:.0830927;stroke-linecap:round;stroke-dasharray:none;stroke-dashoffset:5.28;stroke-opacity:1;paint-order:stroke markers fill"/><path d="M56.964 6.504c1.51-.276 2.74-.956 4.022-1.82.155 1.478-.952 2.095-1.348 2.305-1.314.54-2.16-.02-2.674-.485z" style="fill:#095f77;fill-opacity:1;stroke:none;stroke-width:.0732833px;stroke-linecap:butt;stroke-linejoin:miter;stroke-opacity:1"/></g><path d="M56.34 8.382h10.623v.779H56.34z" style="fill:#596368;fill-opacity:1;stroke:none;stroke-width:.3;stroke-linecap:round;stroke-dasharray:none;stroke-dashoffset:5.28;stroke-opacity:1;paint-order:stroke markers fill" transform="translate(-17.462)"/></g></svg>