<svg xmlns="http://www.w3.org/2000/svg" xml:space="preserve" width="34.016" height="63.379" viewBox="0 0 9 16.769"><path d="M29.528 14.088c.962.69 2.19.738 3.292.797-.403-.44-.918-.7-1.535-.91-1.039-.136-1.237-.016-1.757.113z" style="fill:#939598;fill-opacity:1;stroke:#3e3e3f;stroke-width:.8;stroke-linecap:butt;stroke-linejoin:miter;stroke-dasharray:none;stroke-opacity:1" transform="translate(-26.038 -1.835)"/><path d="M33.8 10.744a3.276 3.268 0 0 1-3.277 3.269 3.276 3.268 0 0 1-3.276-3.269 3.276 3.268 0 0 1 3.276-3.268 3.276 3.268 0 0 1 3.276 3.268z" style="fill:#bcbdc0;stroke:#3e3e3f;stroke-width:.8;stroke-linecap:round;stroke-dasharray:none;stroke-dashoffset:5.28;stroke-opacity:1;paint-order:stroke markers fill" transform="translate(-26.038 -1.835)"/><path d="M28.198 13.046c2.098-.383 3.806-1.328 5.586-2.529.216 2.054-1.322 2.91-1.872 3.202-1.825.752-3.001-.026-3.714-.673zM28.232 6.589c2.099-.383 3.801-1.329 5.582-2.529.216 2.054-1.322 2.91-1.873 3.202-1.824.752-3.054-.046-3.709-.673Z" style="fill:#939598;fill-opacity:1;stroke:#3e3e3f;stroke-width:.8;stroke-linecap:butt;stroke-linejoin:miter;stroke-dasharray:none;stroke-opacity:1" transform="translate(-26.038 -1.835)"/><path d="M29.528 7.636c.962.69 2.19.739 3.292.798-.403-.44-.918-.701-1.535-.91-1.039-.137-1.237-.017-1.757.112Z" style="fill:#939598;fill-opacity:1;stroke:#3e3e3f;stroke-width:.8;stroke-linecap:butt;stroke-linejoin:miter;stroke-dasharray:none;stroke-opacity:1" transform="translate(-26.038 -1.835)"/><path d="M33.797 17.234a3.276 3.268 0 0 0 .002-.038 3.276 3.268 0 0 0-.009-.244 3.276 3.268 0 0 0-.027-.243 3.276 3.268 0 0 0-.046-.24 3.276 3.268 0 0 0-.063-.236 3.276 3.268 0 0 0-.081-.23 3.276 3.268 0 0 0-.098-.225 3.276 3.268 0 0 0-.115-.216 3.276 3.268 0 0 0-.13-.207 3.276 3.268 0 0 0-.146-.197 3.276 3.268 0 0 0-.16-.185 3.276 3.268 0 0 0-.173-.173 3.276 3.268 0 0 0-.185-.16 3.276 3.268 0 0 0-.198-.145 3.276 3.268 0 0 0-.207-.13 3.276 3.268 0 0 0-.216-.114 3.276 3.268 0 0 0-.225-.097 3.276 3.268 0 0 0-.231-.081 3.276 3.268 0 0 0-.237-.064 3.276 3.268 0 0 0-.24-.045 3.276 3.268 0 0 0-.244-.027 3.276 3.268 0 0 0-.245-.01 3.276 3.268 0 0 0-.729.082 3.276 3.268 0 0 0-.692.242 3.276 3.268 0 0 0-.622.39 3.276 3.268 0 0 0-.518.517 3.276 3.268 0 0 0-.39.62 3.276 3.268 0 0 0-.242.69 3.276 3.268 0 0 0-.083.728 3.276 3.268 0 0 0 .003.027l3.288 1.381zM33.6 3.103l-3.062-1.268-3.02 1.25a3.276 3.268 0 0 0-.166.474 3.276 3.268 0 0 0-.082.728 3.276 3.268 0 0 0 .082.727 3.276 3.268 0 0 0 .243.69 3.276 3.268 0 0 0 .39.62 3.276 3.268 0 0 0 .26.26 10.906 10.906 0 0 0 1.843-.51 12.05 12.05 0 0 0 1.045-.444c.228-.108.454-.223.677-.344.224-.12.446-.247.668-.379.222-.132.443-.269.664-.41.221-.142.443-.288.665-.438.009.084.01.162.014.242a3.276 3.268 0 0 0 .001-.014 3.276 3.268 0 0 0-.009-.245 3.276 3.268 0 0 0-.027-.243 3.276 3.268 0 0 0-.046-.24 3.276 3.268 0 0 0-.063-.236 3.276 3.268 0 0 0-.077-.22z" style="fill:#bcbdc0;fill-opacity:1;stroke-width:.264583px" transform="translate(-26.038 -1.835)"/><path d="M33.6 3.103a3.276 3.268 0 0 1 .077.22 3.276 3.268 0 0 1 .063.236 3.276 3.268 0 0 1 .046.24 3.276 3.268 0 0 1 .027.243 3.276 3.268 0 0 1 .01.245 3.276 3.268 0 0 1-.002.014c.001.042.007.088.007.13a3.27 3.27 0 0 1-.066.662 2.82 2.82 0 0 1-.307.805 2.842 2.842 0 0 1-.297.423 3.171 3.171 0 0 1-.502.482 3.923 3.923 0 0 1-.474.321c-.094.055-.178.1-.247.137a4.67 4.67 0 0 1-.654.213 3.662 3.662 0 0 1-.596.09 3.101 3.101 0 0 1-.54-.015 2.905 2.905 0 0 1-.917-.266c-.034-.016-.065-.034-.098-.05a3.276 3.268 0 0 1-.005-.002 3.276 3.268 0 0 1-.007-.005c-.03-.015-.06-.028-.087-.044a3.601 3.601 0 0 1-.359-.227l-.062-.047a3.276 3.268 0 0 1-.106-.067 3.276 3.268 0 0 1-.09-.09c-.067-.054-.134-.109-.193-.163l.024-.004a3.276 3.268 0 0 1-.26-.26 3.276 3.268 0 0 1-.39-.62 3.276 3.268 0 0 1-.243-.69 3.276 3.268 0 0 1-.082-.727 3.276 3.268 0 0 1 .082-.728 3.276 3.268 0 0 1 .166-.473l-1.48.613v13.014l1.213.51a3.276 3.268 0 0 1-.004-.027 3.276 3.268 0 0 1 .083-.727 3.276 3.268 0 0 1 .241-.691 3.276 3.268 0 0 1 .391-.62 3.276 3.268 0 0 1 .518-.518 3.276 3.268 0 0 1 .622-.389 3.276 3.268 0 0 1 .692-.242 3.276 3.268 0 0 1 .73-.082 3.276 3.268 0 0 1 .244.01 3.276 3.268 0 0 1 .244.027 3.276 3.268 0 0 1 .24.045 3.276 3.268 0 0 1 .237.064 3.276 3.268 0 0 1 .231.08 3.276 3.268 0 0 1 .225.098 3.276 3.268 0 0 1 .216.115 3.276 3.268 0 0 1 .208.13 3.276 3.268 0 0 1 .197.144 3.276 3.268 0 0 1 .185.16 3.276 3.268 0 0 1 .174.173 3.276 3.268 0 0 1 .16.185 3.276 3.268 0 0 1 .145.197 3.276 3.268 0 0 1 .13.207 3.276 3.268 0 0 1 .115.216 3.276 3.268 0 0 1 .098.224 3.276 3.268 0 0 1 .08.23 3.276 3.268 0 0 1 .064.237 3.276 3.268 0 0 1 .046.24 3.276 3.268 0 0 1 .027.243 3.276 3.268 0 0 1 .009.244 3.276 3.268 0 0 1-.002.038l1.24-.52V3.698Z" style="fill:#3e3e3f;stroke-width:.264583px" transform="translate(-26.038 -1.835)"/><path d="M29.528 14.088c.962.69 2.19.738 3.292.797-.403-.44-.918-.7-1.535-.91-1.039-.136-1.237-.016-1.757.113z" style="fill:#939598;fill-opacity:1;stroke:none;stroke-width:.214599px;stroke-linecap:butt;stroke-linejoin:miter;stroke-opacity:1" transform="translate(-26.038 -1.835)"/><path d="M33.8 10.744a3.276 3.268 0 0 1-3.277 3.269 3.276 3.268 0 0 1-3.276-3.269 3.276 3.268 0 0 1 3.276-3.268 3.276 3.268 0 0 1 3.276 3.268z" style="fill:#bcbdc0;stroke-width:.115428;stroke-linecap:round;stroke-dashoffset:5.28;paint-order:stroke markers fill" transform="translate(-26.038 -1.835)"/><path d="M28.198 13.046c2.098-.383 3.806-1.328 5.586-2.529.216 2.054-1.322 2.91-1.872 3.202-1.825.752-3.001-.026-3.714-.673z" style="fill:#939598;fill-opacity:1;stroke:none;stroke-width:.101801px;stroke-linecap:butt;stroke-linejoin:miter;stroke-opacity:1" transform="translate(-26.038 -1.835)"/><path d="M28.232 6.589c2.099-.383 3.801-1.329 5.582-2.529.216 2.054-1.322 2.91-1.873 3.202-1.824.752-3.054-.046-3.709-.673Z" style="fill:#939598;fill-opacity:1;stroke:none;stroke-width:.101802px;stroke-linecap:butt;stroke-linejoin:miter;stroke-opacity:1" transform="translate(-26.038 -1.835)"/><path d="M29.528 7.636c.962.69 2.19.739 3.292.798-.403-.44-.918-.701-1.535-.91-1.039-.137-1.237-.017-1.757.112Z" style="fill:#939598;fill-opacity:1;stroke:none;stroke-width:.214599px;stroke-linecap:butt;stroke-linejoin:miter;stroke-opacity:1" transform="translate(-26.038 -1.835)"/></svg>