<svg xmlns="http://www.w3.org/2000/svg" xml:space="preserve" width="61.395" height="60.472" viewBox="0 0 16.244 16"><path d="M75.667 5.6c-.009.017.5 1.754.489 1.768-.012.014-1.81-.196-1.824-.185-.015.012-.256 1.806-.273 1.814-.016.008-1.573-.915-1.591-.911-.018.004-.968 1.545-.986 1.546-.019 0-1.066-1.476-1.084-1.48-.018-.003-1.513 1.019-1.53 1.012-.017-.007-.373-1.782-.388-1.792-.015-.01-1.796.315-1.809.301-.012-.013.384-1.78.375-1.795-.01-.015-1.77-.443-1.775-.46-.007-.017 1.074-1.47 1.072-1.488-.003-.018-1.436-1.124-1.435-1.142.002-.018 1.58-.905 1.585-.923.005-.018-.855-1.611-.846-1.627.009-.016 1.811-.185 1.823-.199.012-.014-.125-1.819-.11-1.83.014-.012 1.729.568 1.745.56.017-.008.626-1.713.644-1.718.017-.004 1.349 1.223 1.367 1.222.018 0 1.268-1.31 1.286-1.307.018.003.735 1.665.752 1.672.017.007 1.692-.681 1.707-.67.015.01-.006 1.82.007 1.833.013.013 1.822.065 1.832.081.01.016-.746 1.66-.74 1.678.007.017 1.639.801 1.641.82.003.017-1.356 1.213-1.358 1.232-.001.018 1.17 1.398 1.166 1.415-.005.018-1.733.557-1.742.574z" style="fill:#3e3e3f;fill-opacity:1;stroke:none;stroke-width:.3;stroke-linecap:round;stroke-dasharray:none;stroke-dashoffset:5.28;stroke-opacity:1;paint-order:stroke markers fill" transform="matrix(1.2798 0 0 1.26322 -83.07 3.833)"/><path d="M78.143 5.584c-.062-.051-.14-.07-.34-.013a4.16 4.16 0 0 0-.672.268c-.169.09-.182.163-.207.217l-2.92 8.262c-.032.138.019.208.085.277l.292.27a.188.188 0 0 0 .103.052l.09.007 6.519-.01c.046-.006.053-.016.09-.056l.339-.318c.032-.034.033-.06.02-.1l-2.625-6.956c-.065-.153.063-.063-.034-.109l3.948 2.16c.121.087.119.033.17-.022l.39-.54c.068-.122-.025-.125-.04-.148z" style="fill:#fff;fill-opacity:1;stroke:none;stroke-width:.264583px;stroke-linecap:butt;stroke-linejoin:miter;stroke-opacity:1" transform="translate(-69.876 -3.02)"/><path d="M83.146 9.306c-.03.13-4.132-2.555-4.673-2.901-.035-.023-.04-.035-.078-.044l-.24-.005c-.065.004-.142.045-.14.094l.958 8.02c.016.043.03.061.083.075l2.466-.005c.032-.034.033-.06.02-.1l-2.625-6.956c-.065-.153.063-.063-.034-.109l3.948 2.16c.121.087.119.033.17-.022.228-.318.568-.781.145-.207z" style="fill:#bcbdc0;fill-opacity:1;stroke:none;stroke-width:.264583px;stroke-linecap:butt;stroke-linejoin:miter;stroke-opacity:1" transform="translate(-69.876 -3.02)"/></svg>