<svg xmlns="http://www.w3.org/2000/svg" xml:space="preserve" width="26.412" height="66.655" viewBox="0 0 6.988 17.636"><path d="m112.87 1.725-2.076.86-1.018.422v14.188l.834.35 2.26.949 3.095-1.3V3.006l-.988-.409-2.106-.872z" style="fill:#3e3e3f;fill-opacity:1;stroke:#3e3e3f;stroke-width:.8;stroke-dasharray:none;stroke-opacity:1" transform="translate(-109.376 -1.292)"/><path d="m113.364 17.612.124-.063.306-.322-.503-.477.503-.478-.397-.416-.524.497-.523-.497-.397.416.502.478-.502.477.397.416.523-.497z" style="fill:#3e3e3f;stroke-width:.8" transform="translate(-109.376 -1.292)"/><path d="m112.87 6.739-2.076.876-1.017.43v9.124l.833.357.183.078a2.22 2.22 0 0 1-.13-.42c-.013-.059-.02-.12-.028-.18a2.163 2.163 0 0 1 .202-1.234 2.232 2.232 0 0 1 .59-.754 2.273 2.273 0 0 1 .672-.385 2.256 2.256 0 0 1 .385-.102c-.094.021-.183.048-.296.076a2.287 2.287 0 0 0 .256.158 2.377 2.377 0 0 0 .41.17 3.1 3.1 0 0 0 .43.107c.098.018.196.033.294.046.098.012.196.022.295.03.196.016.391.026.581.036a1.83 1.83 0 0 0-.105-.105c-.002 0-.003-.002-.004-.003-.02-.019-.042-.036-.063-.053l-.037-.033.096.078a2.303 2.303 0 0 1 .591.79 2.33 2.33 0 0 1 .125.357 1.876 1.876 0 0 1 .048.252 2.852 2.852 0 0 1 .02.262l-.01-.117a2.31 2.31 0 0 1-.031.708c-.015.07-.034.136-.055.2-.01.034-.025.065-.037.097l.972-.416V8.045l-.988-.417-2.105-.89z" style="fill:#3e3e3f;stroke-width:.8" transform="translate(-109.376 -1.292)"/><path d="M114.974 2.597a2.355 2.355 0 0 1 .096.314 2.258 2.258 0 0 1 .057.5l-.001.01c0 .029.005.06.005.089a2.08 2.08 0 0 1-.171.84 1.86 1.86 0 0 1-.29.46 2.145 2.145 0 0 1-.344.33 2.68 2.68 0 0 1-.327.221c-.064.038-.122.07-.17.094a3.196 3.196 0 0 1-.449.147 2.512 2.512 0 0 1-.41.062 2.134 2.134 0 0 1-.541-.038 2.019 2.019 0 0 1-.46-.155l-.067-.035-.003-.001-.005-.003-.06-.03a2.469 2.469 0 0 1-.247-.157l-.043-.032a2.04 2.04 0 0 1-.072-.046 2.257 2.257 0 0 1-.063-.062c-.045-.037-.096-.098-.136-.135.006 0 .015.02.02.02a2.254 2.254 0 0 1-.178-.179 2.247 2.247 0 0 1-.435-1.9c.03-.111.068-.22.114-.326l-1.017.422v8.945l.833.35c0-.005 0-.012-.002-.018 2.166-.37 2.015-1.316 4.479-.334a2.458 2.458 0 0 1 .024.36l.853-.358V3.007Z" style="fill:#3e3e3f;stroke-width:.264583px" transform="translate(-109.376 -1.292)"/><path d="M115.12 7.845a2.252 2.247 0 0 1-2.252 2.247 2.252 2.247 0 0 1-2.252-2.247 2.252 2.247 0 0 1 2.252-2.246 2.252 2.247 0 0 1 2.251 2.246z" style="fill:#dedede;fill-opacity:1;stroke-width:.115428;stroke-linecap:round;stroke-dashoffset:5.28;paint-order:stroke markers fill" transform="translate(-109.376 -1.292)"/><path d="M112.184 5.709c.661.475 1.504.508 2.263.548-.277-.303-.631-.482-1.056-.625-.714-.094-.85-.012-1.207.077z" style="fill:#bcbdc0;fill-opacity:1;stroke:none;stroke-width:.214599px;stroke-linecap:butt;stroke-linejoin:miter;stroke-opacity:1" transform="translate(-109.376 -1.292)"/><path d="m114.969 2.597-2.105-.872-2.075.86a2.252 2.247 0 0 0-.114.325 2.252 2.247 0 0 0-.057.5 2.252 2.247 0 0 0 .057.5 2.252 2.247 0 0 0 .166.475 2.252 2.247 0 0 0 .268.426 2.252 2.247 0 0 0 .18.178 7.503 7.503 0 0 0 1.509-.445 8.9 8.9 0 0 0 .941-.447 12.688 12.688 0 0 0 .915-.542c.152-.097.304-.198.457-.301.007.057.008.111.01.166a2.252 2.247 0 0 0 0-.01 2.252 2.247 0 0 0-.007-.168 2.252 2.247 0 0 0-.019-.167 2.252 2.247 0 0 0-.03-.165 2.252 2.247 0 0 0-.044-.162 2.252 2.247 0 0 0-.053-.151z" style="fill:#bcbdc0;fill-opacity:1;stroke-width:.264583px" transform="translate(-109.376 -1.292)"/><path d="M112.184 10.22c.661.475 1.504.508 2.263.548-.277-.302-.631-.481-1.056-.625-.714-.094-.85-.011-1.207.077z" style="fill:#939598;fill-opacity:1;stroke:none;stroke-width:.214599px;stroke-linecap:butt;stroke-linejoin:miter;stroke-opacity:1" transform="translate(-109.376 -1.292)"/><g style="stroke-width:1.04063"><g style="stroke-width:1.09814"><path d="M116.958 12.831a2.473 2.467 0 0 1-2.473 2.467 2.473 2.467 0 0 1-2.473-2.467 2.473 2.467 0 0 1 2.473-2.467 2.473 2.467 0 0 1 2.473 2.467z" style="opacity:1;fill:#bcbdc0;stroke-width:.126757;stroke-linecap:round;stroke-dashoffset:5.28;paint-order:stroke markers fill" transform="matrix(.91062 0 0 .91062 -100.761 -.69)"/><path d="M113.734 10.485c.726.522 1.652.558 2.485.602-.304-.332-.693-.529-1.159-.687-.784-.103-.933-.012-1.326.085z" style="opacity:1;fill:#939598;fill-opacity:1;stroke:none;stroke-width:.235662px;stroke-linecap:butt;stroke-linejoin:miter;stroke-opacity:1" transform="matrix(.91062 0 0 .91062 -100.761 -.69)"/></g><path d="M112.545 13.487c1.5-.274 2.722-.95 3.995-1.809.155 1.47-.945 2.082-1.339 2.29-1.305.538-2.146-.018-2.656-.48z" style="fill:#939598;fill-opacity:1;stroke:none;stroke-width:.105937px;stroke-linecap:butt;stroke-linejoin:miter;stroke-opacity:1" transform="matrix(.96096 0 0 .96096 -106.258 -.383)"/><path d="m113.663 10.91-.413.434.523.497-.523.497.413.433.545-.518.545.518.413-.433-.523-.497.523-.497-.413-.433-.545.517z" style="color:#000;fill:#3e3e3f;fill-opacity:1;stroke-width:1.27742;-inkscape-stroke:none" transform="matrix(.96096 0 0 .96096 -106.258 -.383)"/></g><path d="m112.33 2.52-.396.416.502.477-.502.478.396.416.524-.497.524.497.397-.416-.503-.478.503-.477-.397-.417-.524.498z" style="color:#000;fill:#3e3e3f;fill-opacity:1;stroke-width:1;-inkscape-stroke:none" transform="translate(-109.376 -1.292)"/><path d="M111.27 9.426c1.443-.263 2.613-.913 3.837-1.738.148 1.412-.909 2-1.287 2.2-1.254.518-2.1-.03-2.55-.462z" style="fill:#bcbdc0;fill-opacity:1;stroke:none;stroke-width:.101802px;stroke-linecap:butt;stroke-linejoin:miter;stroke-opacity:1" transform="translate(-109.376 -1.292)"/><path d="M111.27 4.984c1.443-.263 2.613-.913 3.837-1.738.148 1.412-.909 2-1.287 2.201-1.254.517-2.1-.031-2.55-.463z" style="mix-blend-mode:normal;fill:#939598;fill-opacity:1;stroke:none;stroke-width:.101802px;stroke-linecap:butt;stroke-linejoin:miter;stroke-opacity:1" transform="translate(-109.376 -1.292)"/><path d="m114.667 16.874.041-.026a22.728 22.728 0 0 1-.042.026zM114.247 17.133l.055-.032a17.303 17.303 0 0 0-.055.032zM114.098 17.219l.103-.058.045-.028c-.049.03-.099.057-.148.086zM113.804 17.385c.03-.016.06-.03.09-.047.068-.038.136-.08.204-.12a12.5 12.5 0 0 1-.295.167z" style="fill:#939598;stroke-width:.101801px" transform="translate(-109.376 -1.292)"/><path d="M113.645 17.47c.032-.018.064-.032.096-.05l.063-.035-.159.084zM113.488 17.549l-.007.007c.055-.028.11-.058.164-.087-.052.028-.105.053-.157.08zM113.143 17.717l.132-.06.042-.021a9.763 9.763 0 0 1-.174.081zM112.914 17.817l.124-.052.067-.031a8.933 8.933 0 0 1-.19.083zM112.674 17.914c.041-.016.083-.031.124-.048l.048-.02a8.588 8.588 0 0 1-.172.068z" style="fill:#939598;stroke-width:.101801px" transform="translate(-109.376 -1.292)"/><path d="M114.992 17.585c.013-.032.027-.063.038-.096a1.93 1.93 0 0 0 .089-.42 2.166 2.166 0 0 0-.003-.489c-.137.092-.272.181-.408.268l-.041.026-.01.006-.047.03c-.103.064-.206.129-.308.19l-.056.033-.045.028-.103.058-.205.119-.09.047-.062.036-.096.048c-.055.029-.109.06-.164.087l.007-.007c-.042.02-.083.042-.124.063h.002l-.049.023c-.014.007-.027.015-.041.021-.044.021-.089.04-.133.06l-.024.012-.013.006-.067.03c-.041.019-.083.036-.124.053l-.046.02-.023.009-.047.02c-.041.017-.083.032-.125.048l-.06.024-.02.007-.038.015c-.045.017-.09.031-.134.047l-.065.024a.85.85 0 0 0-.017.005l-.032.011c-.063.021-.126.04-.19.06l-.024.008h-.004l-.033.011-.027.008.84.36z" style="fill:#939598;stroke-width:.101801px" transform="translate(-109.376 -1.292)"/><path d="M112.186 14.605c.662.473 1.507.506 2.266.546-.277-.301-.632-.48-1.057-.623-.715-.094-.851-.012-1.209.077z" style="fill:#939598;fill-opacity:1;stroke:none;stroke-width:.214599px;stroke-linecap:butt;stroke-linejoin:miter;stroke-opacity:1" transform="translate(-109.376 -1.292)"/><path d="m112.35 15.856-.398.416.503.477-.503.478.397.416.524-.497.524.497.396-.416-.502-.478.502-.477-.396-.416-.524.497z" style="color:#000;fill:#3e3e3f;fill-opacity:1;stroke-width:1.22755;-inkscape-stroke:none" transform="translate(-109.376 -1.292)"/><path d="M114.433 15.12zM110.626 16.933a2.163 2.163 0 0 1-.004-.036c0 .012.003.024.004.036z" style="fill:#bcbdc0;stroke-width:.161478;stroke-linecap:round;stroke-dashoffset:5.28;paint-order:stroke markers fill" transform="translate(-109.376 -1.292)"/><path d="m112.028 18.133.065-.018a7.796 7.796 0 0 0 1.025-.387 9.63 9.63 0 0 0 .247-.115l-.492-.467-.524.497-.397-.416.503-.477-.503-.478.397-.416.524.497.524-.497.396.416-.502.478.502.477-.313.33a11.22 11.22 0 0 0 .821-.456 17.118 17.118 0 0 0 .814-.521l.01.117a2.552 2.552 0 0 0-.02-.262 2.405 2.405 0 0 0-.083-.374 2.2 2.2 0 0 0-.68-1.025h-.001a2.244 2.244 0 0 0-.097-.078l.038.033c.021.017.043.034.063.053l.004.003a1.834 1.834 0 0 1 .105.104c-.19-.01-.385-.019-.58-.035h-.001a7.13 7.13 0 0 1-.295-.03 4.923 4.923 0 0 1-.582-.11 3.081 3.081 0 0 1-.418-.148 2.269 2.269 0 0 1-.264-.14 2.137 2.137 0 0 1-.126-.083c.113-.028.202-.055.296-.076a2.259 2.259 0 0 0-.384.102 2.264 2.264 0 0 0-1.402 1.506 2.184 2.184 0 0 0-.063.867c.008.06.015.121.027.18a2.202 2.202 0 0 0 .13.42h.001z" style="fill:#bcbdc0;stroke-width:.161478;stroke-linecap:round;stroke-dashoffset:5.28;paint-order:stroke markers fill" transform="translate(-109.376 -1.292)"/><path d="M115.125 16.697c.004.061.005.12.004.179v-.042l-.003-.125-.001-.012z" style="fill:#939598;stroke-width:.142414px" transform="translate(-109.376 -1.292)"/><path d="M114.052 14.825a2.053 2.053 0 0 1 .056.035l-.056-.035zM113.838 14.706c.064.031.125.065.185.101l-.044-.027a2.544 2.544 0 0 0-.136-.071l-.006-.003zM112.486 14.528a1.75 1.75 0 0 1 .14-.024c-.04.005-.08.01-.117.018l-.023.006z" style="fill:#939598;stroke-width:.300213px" transform="translate(-109.376 -1.292)"/><path d="M112.483 14.529c-.094.021-.184.048-.297.076a2.256 2.256 0 0 0 .256.158 2.38 2.38 0 0 0 .41.17 3.129 3.129 0 0 0 .431.107c.097.018.195.033.294.046.098.012.196.022.294.03.197.016.392.026.582.036a1.834 1.834 0 0 0-.105-.105c-.022-.02-.045-.038-.067-.056l-.038-.033c-.002 0-.003-.002-.005-.003a2.05 2.05 0 0 0-.188-.13l-.029-.018a2.478 2.478 0 0 0-.423-.204 4.41 4.41 0 0 0-.204-.075 5.72 5.72 0 0 0-.296-.032 2.985 2.985 0 0 0-.23-.01 1.811 1.811 0 0 0-.205.012c-.013.001-.025.004-.038.006a1.744 1.744 0 0 0-.14.024h-.004z" style="fill:#939598;stroke-width:.300213px" transform="translate(-109.376 -1.292)"/><path d="m113.48 17.556.313-.33-.502-.476.502-.478-.396-.416-.524.497-.524-.497-.397.416.503.478-.503.477.397.416.524-.497.492.467.032.03z" style="fill:#3e3e3f;stroke-width:1.22755" transform="translate(-109.376 -1.292)"/></svg>