<svg xmlns="http://www.w3.org/2000/svg" xml:space="preserve" width="37.039" height="66.655" viewBox="0 0 9.8 17.636"><g style="stroke:#3e3e3f;stroke-width:.8;stroke-dasharray:none;stroke-opacity:1" transform="translate(-30.4 -1.402)"><path d="m35.3 1.835-4.5 1.864v13.014l4.5 1.891 4.5-1.891V3.699Z" style="fill:#3e3e3f;fill-opacity:1;stroke:#3e3e3f;stroke-width:.8;stroke-linecap:butt;stroke-linejoin:miter;stroke-dasharray:none;stroke-opacity:1"/><ellipse cx="35.272" cy="13.6" fill="none" rx="3.497" ry="3.489" style="fill:#32aaaa;fill-opacity:0;stroke:#3e3e3f;stroke-width:.8;stroke-linecap:round;stroke-dasharray:none;stroke-dashoffset:5.28;stroke-opacity:1;paint-order:stroke markers fill"/><ellipse cx="35.272" cy="13.6" fill="none" rx="3.497" ry="3.489" style="fill:#32aaaa;fill-opacity:0;stroke:#3e3e3f;stroke-width:.8;stroke-linecap:round;stroke-dasharray:none;stroke-dashoffset:5.28;stroke-opacity:1;paint-order:stroke markers fill"/><g style="stroke:#3e3e3f;stroke-width:.8;stroke-dasharray:none;stroke-opacity:1" transform="translate(.012 .054)"><ellipse cx="35.272" cy="13.6" rx="3.497" ry="3.489" style="fill:#dedede;fill-opacity:1;stroke:#3e3e3f;stroke-width:.8;stroke-linecap:round;stroke-dasharray:none;stroke-dashoffset:5.28;stroke-opacity:1;paint-order:stroke markers fill"/><path d="M32.79 16.058c2.24-.41 4.063-1.419 5.964-2.7.23 2.193-1.412 3.107-2 3.418-1.948.803-3.203-.028-3.964-.718zM34.21 10.282c1.027.737 2.337.788 3.515.851-.43-.47-.98-.748-1.64-.971-1.108-.146-1.32-.018-1.875.12z" style="fill:#bcbdc0;fill-opacity:1;stroke:#3e3e3f;stroke-width:.8;stroke-linecap:butt;stroke-linejoin:miter;stroke-dasharray:none;stroke-opacity:1"/></g><g style="stroke:#3e3e3f;stroke-width:.8;stroke-dasharray:none;stroke-opacity:1" transform="translate(.037 .048)"><ellipse cx="35.272" cy="6.721" rx="3.497" ry="3.489" style="fill:#bcbdc0;fill-opacity:1;stroke:#3e3e3f;stroke-width:.8;stroke-linecap:round;stroke-dasharray:none;stroke-dashoffset:5.28;stroke-opacity:1;paint-order:stroke markers fill"/><path d="M32.79 9.178c2.24-.409 4.063-1.418 5.964-2.7.23 2.194-1.412 3.108-2 3.42-1.948.802-3.203-.029-3.964-.72Z" style="fill:#939598;fill-opacity:1;stroke:#3e3e3f;stroke-width:.8;stroke-linecap:butt;stroke-linejoin:miter;stroke-dasharray:none;stroke-opacity:1"/></g></g><g transform="translate(-30.4 -1.402)"><path d="m35.3 1.835-4.5 1.864v13.014l4.5 1.891 4.5-1.891V3.699Z" style="fill:#3e3e3f;fill-opacity:1;stroke:none;stroke-width:.264583px;stroke-linecap:butt;stroke-linejoin:miter;stroke-opacity:1"/><ellipse cx="35.272" cy="13.6" fill="none" rx="3.497" ry="3.489" style="fill:#32aaaa;fill-opacity:0;stroke:none;stroke-width:.123232;stroke-linecap:round;stroke-dasharray:none;stroke-dashoffset:5.28;stroke-opacity:1;paint-order:stroke markers fill"/><ellipse cx="35.272" cy="13.6" fill="none" rx="3.497" ry="3.489" style="fill:#32aaaa;fill-opacity:0;stroke:none;stroke-width:.123232;stroke-linecap:round;stroke-dasharray:none;stroke-dashoffset:5.28;stroke-opacity:1;paint-order:stroke markers fill"/><g transform="translate(.012 .054)"><ellipse cx="35.272" cy="13.6" rx="3.497" ry="3.489" style="fill:#dedede;fill-opacity:1;stroke:none;stroke-width:.123232;stroke-linecap:round;stroke-dasharray:none;stroke-dashoffset:5.28;stroke-opacity:1;paint-order:stroke markers fill"/><path d="M32.79 16.058c2.24-.41 4.063-1.419 5.964-2.7.23 2.193-1.412 3.107-2 3.418-1.948.803-3.203-.028-3.964-.718z" style="fill:#bcbdc0;fill-opacity:1;stroke:none;stroke-width:.108684px;stroke-linecap:butt;stroke-linejoin:miter;stroke-opacity:1"/><path d="M34.21 10.282c1.027.737 2.337.788 3.515.851-.43-.47-.98-.748-1.64-.971-1.108-.146-1.32-.018-1.875.12z" style="fill:#bcbdc0;fill-opacity:1;stroke:none;stroke-width:.229109px;stroke-linecap:butt;stroke-linejoin:miter;stroke-opacity:1"/></g><g transform="translate(.037 .048)"><ellipse cx="35.272" cy="6.721" rx="3.497" ry="3.489" style="fill:#bcbdc0;fill-opacity:1;stroke:none;stroke-width:.123232;stroke-linecap:round;stroke-dasharray:none;stroke-dashoffset:5.28;stroke-opacity:1;paint-order:stroke markers fill"/><path d="M32.79 9.178c2.24-.409 4.063-1.418 5.964-2.7.23 2.194-1.412 3.108-2 3.42-1.948.802-3.203-.029-3.964-.72Z" style="fill:#939598;fill-opacity:1;stroke:none;stroke-width:.108684px;stroke-linecap:butt;stroke-linejoin:miter;stroke-opacity:1"/></g></g></svg>