<svg xmlns="http://www.w3.org/2000/svg" xml:space="preserve" width="42.813" height="42.665" viewBox="0 0 11.328 11.288"><path d="M76.267 16.085 71.74 13.02l-.828 2.344a.476.476 0 0 0-.012.11.263.263 0 0 0 .019.087c.01.026.024.05.04.072a.676.676 0 0 0 .055.064l.35.325a.19.19 0 0 0 .055.04c.022.01.045.017.069.023l.11.008z" style="opacity:.992009;fill:#b72327;fill-opacity:1;stroke-width:.264584px" transform="translate(-70.899 -4.804)"/><path d="m72.883 9.782-1.144 3.237 4.528 3.066 3.167-.004a.18.18 0 0 0 .034-.008.09.09 0 0 0 .024-.012c.014-.01.028-.025.05-.05l.407-.381c.01-.01.017-.02.023-.03a.088.088 0 0 0 .01-.027.096.096 0 0 0 0-.03.196.196 0 0 0-.008-.034l-.469-1.242Z" style="fill:#e0ca20;fill-opacity:1;stroke-width:.264584px" transform="translate(-70.899 -4.804)"/><path d="m77.585 9.18-3.622-2.453-1.08 3.055 6.622 4.485Z" style="fill:#3d494e;fill-opacity:1;stroke-width:.264584px" transform="translate(-70.899 -4.804)"/><path d="M75.744 4.805a.509.509 0 0 0-.112.006 1.276 1.276 0 0 0-.154.035 5.695 5.695 0 0 0-.635.238 2.81 2.81 0 0 0-.24.123.639.639 0 0 0-.053.038.4.4 0 0 0-.106.13l-.022.054-.46 1.298 3.623 2.453-.768-2.035a.362.362 0 0 1-.02-.055.105.105 0 0 1-.003-.035.03.03 0 0 1 .007-.017.018.018 0 0 1 .009-.005l-.034-.019c.03.014.042.018.045.018.003 0-.002-.002-.01 0l-.001.001 4.714 2.58a.368.368 0 0 0 .084.048c.01.004.02.006.028.006a.048.048 0 0 0 .021-.004.096.096 0 0 0 .034-.03c.01-.015.022-.032.037-.048l.469-.649a.292.292 0 0 0 .022-.048.137.137 0 0 0 .007-.038c0-.01 0-.02-.003-.028a.064.064 0 0 0-.013-.02.126.126 0 0 0-.034-.025c-.012-.006-.022-.012-.026-.019l-6.262-3.896a.246.246 0 0 0-.144-.057z" style="fill:#11a3c8;fill-opacity:1;stroke-width:.264584px" transform="translate(-70.899 -4.804)"/><path d="M81.903 9.336c-.037.156-4.969-3.072-5.62-3.488-.042-.027-.048-.042-.093-.052l-.288-.007c-.078.006-.17.055-.168.113l1.15 9.643c.02.052.038.074.1.09l2.965-.005c.039-.04.04-.072.025-.12l-3.157-8.364c-.078-.185.076-.076-.04-.131l4.747 2.597c.145.105.142.04.204-.027.274-.382.682-.939.175-.249z" style="mix-blend-mode:multiply;fill:#bdbdbd;fill-opacity:1;stroke:none;stroke-width:.264584px;stroke-linecap:butt;stroke-linejoin:miter;stroke-opacity:1" transform="translate(-70.899 -4.804)"/></svg>