<svg xmlns="http://www.w3.org/2000/svg" xml:space="preserve" width="31.518" height="47.553" viewBox="0 0 8.339 12.582"><g transform="translate(-85.206 -4.627)"><path d="M88.111 6.94h2.52v3.336h-2.52z" style="fill:#bcbdc0;fill-opacity:1;stroke:none;stroke-width:.9;stroke-linecap:round;stroke-dasharray:none;stroke-dashoffset:5.28;stroke-opacity:1;paint-order:stroke markers fill"/><path d="M87.829 4.627V5.79h.504v.672h2.075V5.79h.505V4.627Z" style="fill:#182428;fill-opacity:1;stroke-width:.899999;stroke-linecap:round;stroke-dashoffset:5.28;paint-order:stroke markers fill"/><path d="M87.437 6.197h3.868v.855h-3.868z" style="fill:#bcbdc0;fill-opacity:1;stroke:none;stroke-width:.899999;stroke-linecap:round;stroke-dasharray:none;stroke-dashoffset:5.28;stroke-opacity:1;paint-order:stroke markers fill"/><path d="M88.285 7.164v.476h2.172v-.476h-.224v.168h-1.724v-.168Z" style="fill:#dedede;fill-opacity:1;stroke-width:.899999;stroke-linecap:round;stroke-dashoffset:5.28;paint-order:stroke markers fill"/><path d="M88.593 7.641h1.556v.28h-1.556z" style="fill:#182428;fill-opacity:1;stroke:none;stroke-width:.899995;stroke-linecap:round;stroke-dasharray:none;stroke-dashoffset:5.28;stroke-opacity:1;paint-order:stroke markers fill"/><path d="M89.376 8.888a4.17 4.16 0 0 0-.594.042 4.17 4.16 0 0 0-.58.127 4.17 4.16 0 0 0-.558.207 4.17 4.16 0 0 0-.522.284 4.17 4.16 0 0 0-.476.357 4.17 4.16 0 0 0-.421.42 4.17 4.16 0 0 0-.357.474 4.17 4.16 0 0 0-.285.521 4.17 4.16 0 0 0-.208.557 4.17 4.16 0 0 0-.126.58 4.17 4.16 0 0 0-.043.592 4.17 4.16 0 0 0 .043.591 4.17 4.16 0 0 0 .126.58 4.17 4.16 0 0 0 .208.557 4.17 4.16 0 0 0 .285.52 4.17 4.16 0 0 0 .357.475 4.17 4.16 0 0 0 .217.216 15.621 15.621 0 0 0 1.882-.504 17.593 17.593 0 0 0 1.395-.53 18.672 18.672 0 0 0 3.042-1.641 18.579 18.579 0 0 0 .774-.545 4.17 4.16 0 0 0-.009-.127 4.17 4.16 0 0 0-.025-.203 4.17 4.16 0 0 0-.035-.201 4.17 4.16 0 0 0-.045-.2 4.17 4.16 0 0 0-.054-.196 4.17 4.16 0 0 0-.065-.194 4.17 4.16 0 0 0-.073-.19 4.17 4.16 0 0 0-.083-.187 4.17 4.16 0 0 0-.092-.183 4.17 4.16 0 0 0-.101-.177 4.17 4.16 0 0 0-.11-.173 4.17 4.16 0 0 0-.117-.167 4.17 4.16 0 0 0-.126-.16 4.17 4.16 0 0 0-.134-.156 4.17 4.16 0 0 0-.141-.147 4.17 4.16 0 0 0-.149-.14 4.17 4.16 0 0 0-.155-.134 4.17 4.16 0 0 0-.16-.126 4.17 4.16 0 0 0-.168-.118 4.17 4.16 0 0 0-.173-.109 4.17 4.16 0 0 0-.178-.1 4.17 4.16 0 0 0-.183-.092 4.17 4.16 0 0 0-.187-.083 4.17 4.16 0 0 0-.19-.074 4.17 4.16 0 0 0-.195-.064 4.17 4.16 0 0 0-.198-.054 4.17 4.16 0 0 0-.199-.045 4.17 4.16 0 0 0-.202-.034 4.17 4.16 0 0 0-.203-.026 4.17 4.16 0 0 0-.204-.015 4.17 4.16 0 0 0-.204-.005z" style="fill:#bcbdc0;stroke-width:.123232;stroke-linecap:round;stroke-dashoffset:5.28;paint-order:stroke markers fill"/><circle cx="89.38" cy="13.058" r="3.025" style="fill:#a75ea6;fill-opacity:1;stroke:none;stroke-width:.799999;stroke-linecap:round;stroke-dasharray:none;stroke-dashoffset:5.28;stroke-opacity:1;paint-order:stroke markers fill"/><path d="m91.758 12.725-.467-.004c-.161-.001-.29-.004-.445-.006a1.322 1.322 0 0 1 .025.267 1.565 1.565 0 0 1-.117.586 1.488 1.488 0 0 1-1.537.906 1.526 1.526 0 0 1-.432-.109 1.496 1.496 0 0 1-.37-.223l-.022-.02c-.046.055-.08.099-.128.155-.16.194-.307.369-.445.532l.027.023a2.412 2.412 0 0 0 1.042.502 2.413 2.413 0 0 0 1.194-.06 2.374 2.374 0 0 0 .984-.597 2.432 2.432 0 0 0 .515-.763 2.414 2.414 0 0 0 .175-1.189zM89.371 10.582a2.39 2.39 0 0 0-2.052 1.158 2.482 2.482 0 0 0-.24.53 2.408 2.408 0 0 0-.096.957l.002.012.481.003.43.007a1.34 1.34 0 0 1-.017-.421 1.494 1.494 0 0 1 1.492-1.346 1.576 1.576 0 0 1 .448.067 1.497 1.497 0 0 1 .509.274l.03.027.134-.164.439-.524-.035-.03a2.475 2.475 0 0 0-.383-.26 2.41 2.41 0 0 0-1.142-.29z" style="fill:#fff;fill-opacity:1;stroke-linecap:round;stroke-dashoffset:5.28;paint-order:stroke markers fill"/><path d="M110.288 11.212c-.012.014-1.811-.362-1.817-.38-.006-.018 1.22-1.387 1.238-1.384.018.004.592 1.75.58 1.764z" style="fill:#fff;fill-opacity:1;stroke:none;stroke-width:1.12665;stroke-linecap:round;stroke-dasharray:none;stroke-dashoffset:5.28;stroke-opacity:1;paint-order:stroke markers fill" transform="matrix(.9818 -.12117 .18988 .62652 -18.2 19.44)"/><path d="M110.288 11.212c-.012.014-1.811-.362-1.817-.38-.006-.018 1.22-1.387 1.238-1.384.018.004.592 1.75.58 1.764z" style="fill:#fff;fill-opacity:1;stroke:none;stroke-width:1.12665;stroke-linecap:round;stroke-dasharray:none;stroke-dashoffset:5.28;stroke-opacity:1;paint-order:stroke markers fill" transform="matrix(-.9818 .12117 -.18988 -.62652 196.957 6.523)"/><path d="M93.535 12.768a18.195 18.195 0 0 1-2.033 1.311 19.072 19.072 0 0 1-2.244 1.065 17.987 17.987 0 0 1-1.407.49 16.684 16.684 0 0 1-1.41.354 4.17 4.16 0 0 0 .205.205 4.17 4.16 0 0 0 .476.355 4.17 4.16 0 0 0 .522.284 4.17 4.16 0 0 0 .557.208 4.17 4.16 0 0 0 .581.126 4.17 4.16 0 0 0 .594.042 4.17 4.16 0 0 0 .594-.042 4.17 4.16 0 0 0 .58-.126 4.17 4.16 0 0 0 .558-.208 4.17 4.16 0 0 0 .522-.284 4.17 4.16 0 0 0 .477-.355 4.17 4.16 0 0 0 .42-.42 4.17 4.16 0 0 0 .357-.476 4.17 4.16 0 0 0 .285-.52 4.17 4.16 0 0 0 .208-.556 4.17 4.16 0 0 0 .126-.58 4.17 4.16 0 0 0 .043-.592 4.17 4.16 0 0 0-.005-.205 4.17 4.16 0 0 0-.006-.076z" style="mix-blend-mode:multiply;fill:#939598;fill-opacity:1;stroke-width:.123232;stroke-linecap:round;stroke-dashoffset:5.28;paint-order:stroke markers fill"/></g></svg>