<svg xmlns="http://www.w3.org/2000/svg" xml:space="preserve" width="63.379" height="34.016" viewBox="0 0 16.769 9"><path d="m13.798 5.629-.51 1.213-1.38 3.286 1.89 4.5h13.014l.596-1.436.039-.093a3.268 3.276 0 0 1-.08.042 3.268 3.276 0 0 1-.612.187 3.268 3.276 0 0 1-.638.063 3.268 3.276 0 0 1-.638-.063 3.268 3.276 0 0 1-.612-.187 3.268 3.276 0 0 1-.566-.303 3.268 3.276 0 0 1-.495-.407 3.268 3.276 0 0 1-.407-.496 3.268 3.276 0 0 1-.301-.567 3.268 3.276 0 0 1-.186-.614 3.268 3.276 0 0 1-.063-.64 3.268 3.276 0 0 1 .063-.638 3.268 3.276 0 0 1 .186-.615 3.268 3.276 0 0 1 .301-.567 3.268 3.276 0 0 1 .407-.496 3.268 3.276 0 0 1 .495-.407 3.268 3.276 0 0 1 .566-.303 3.268 3.276 0 0 1 .612-.186 3.268 3.276 0 0 1 .638-.063 3.268 3.276 0 0 1 .233.008 3.268 3.276 0 0 1 .232.025 3.268 3.276 0 0 1 .23.042 3.268 3.276 0 0 1 .226.058 3.268 3.276 0 0 1 .221.073 3.268 3.276 0 0 1 .17.07l-.004-.006-.613-1.48z" style="fill:#3e3e3f;stroke:none;stroke-width:.8" transform="translate(-11.907 -5.629)"/><path d="M13.277 13.389a3.268 3.276 0 0 0 .039 0 3.268 3.276 0 0 0 .243-.008 3.268 3.276 0 0 0 .243-.028 3.268 3.276 0 0 0 .24-.046 3.268 3.276 0 0 0 .237-.063 3.268 3.276 0 0 0 .23-.08 3.268 3.276 0 0 0 .225-.098 3.268 3.276 0 0 0 .216-.115 3.268 3.276 0 0 0 .207-.13 3.268 3.276 0 0 0 .196-.146 3.268 3.276 0 0 0 .186-.16 3.268 3.276 0 0 0 .172-.173 3.268 3.276 0 0 0 .16-.185 3.268 3.276 0 0 0 .145-.198 3.268 3.276 0 0 0 .13-.207 3.268 3.276 0 0 0 .114-.217 3.268 3.276 0 0 0 .098-.224 3.268 3.276 0 0 0 .08-.231 3.268 3.276 0 0 0 .064-.237 3.268 3.276 0 0 0 .045-.24 3.268 3.276 0 0 0 .028-.244 3.268 3.276 0 0 0 .009-.245 3.268 3.276 0 0 0-.082-.73 3.268 3.276 0 0 0-.242-.692 3.268 3.276 0 0 0-.39-.621 3.268 3.276 0 0 0-.517-.518 3.268 3.276 0 0 0-.62-.39 3.268 3.276 0 0 0-.69-.243 3.268 3.276 0 0 0-.728-.082 3.268 3.276 0 0 0-.027.003l-1.38 3.287z" style="fill:#bcbdc0;fill-opacity:1;stroke-width:.264583px" transform="translate(-11.907 -5.629)"/><path d="M27.408 13.191c-5.834 2.283-5.44-8.48.018-6.081l-.613-1.48H13.798l-.51 1.212.028-.003a3.261 3.261 0 0 1 2.555 1.233 3.277 3.277 0 0 1 .631 2.772 3.277 3.277 0 0 1-2.223 2.401 3.263 3.263 0 0 1-.963.146l-.038-.002.52 1.24h13.014z" style="fill:#3e3e3f;stroke-width:.264583px" transform="translate(-11.907 -5.629)"/><path d="M19.767 13.39a3.268 3.276 0 0 1-3.268-3.275 3.268 3.276 0 0 1 3.268-3.276 3.268 3.276 0 0 1 3.269 3.276 3.268 3.276 0 0 1-3.269 3.276z" style="fill:#bcbdc0;stroke-width:.115428;stroke-linecap:round;stroke-dashoffset:5.28;paint-order:stroke markers fill" transform="translate(-11.907 -5.629)"/><path d="M27.428 7.116a3.268 3.276 0 0 0-.169-.07 3.268 3.276 0 0 0-.22-.074 3.268 3.276 0 0 0-.227-.058 3.268 3.276 0 0 0-.23-.042 3.268 3.276 0 0 0-.232-.025 3.268 3.276 0 0 0-.233-.008 3.268 3.276 0 0 0-.638.063 3.268 3.276 0 0 0-.612.186 3.268 3.276 0 0 0-.566.303 3.268 3.276 0 0 0-.495.407 3.268 3.276 0 0 0-.406.496 3.268 3.276 0 0 0-.302.567 3.268 3.276 0 0 0-.186.615 3.268 3.276 0 0 0-.063.638 3.268 3.276 0 0 0 .063.64 3.268 3.276 0 0 0 .186.614 3.268 3.276 0 0 0 .302.567 3.268 3.276 0 0 0 .406.496 3.268 3.276 0 0 0 .495.407 3.268 3.276 0 0 0 .566.303 3.268 3.276 0 0 0 .612.187 3.268 3.276 0 0 0 .638.063 3.268 3.276 0 0 0 .638-.063 3.268 3.276 0 0 0 .613-.187 3.268 3.276 0 0 0 .079-.042l1.23-2.97z" style="fill:#bcbdc0;fill-opacity:1;stroke:none;stroke-width:.8" transform="translate(-11.907 -5.629)"/><path d="M17.45 12.44c2.075-.384 3.763-1.329 5.523-2.53.214 2.055-1.307 2.91-1.85 3.203-1.805.751-2.968-.027-3.673-.674z" style="fill:#939598;fill-opacity:1;stroke:none;stroke-width:.101801px;stroke-linecap:butt;stroke-linejoin:miter;stroke-opacity:1" transform="translate(-11.907 -5.629)"/><path d="M13.29 13.419c.07 0 .139 0 .21-.003a3.336 3.336 0 0 0 .596-.09 4.092 4.092 0 0 0 .655-.213c.069-.037.153-.082.247-.138a4.457 4.457 0 0 0 .474-.32 3.661 3.661 0 0 0 .338-.302 3.175 3.175 0 0 0 .319-.381 2.843 2.843 0 0 0 .266-.467 2.735 2.735 0 0 0 .183-.561 2.975 2.975 0 0 0 .066-.662c0-.12-.007-.243-.02-.371-.223.15-.445.296-.666.437a23.77 23.77 0 0 1-.664.41 15.17 15.17 0 0 1-1.689.881 12.69 12.69 0 0 1-.702.286l-.21.074zM28.557 10.416a18.182 18.182 0 0 1-1.208.721 14.928 14.928 0 0 1-1.01.502 12.463 12.463 0 0 1-1.048.412 10.999 10.999 0 0 1-1.491.388 5.315 5.315 0 0 0 .446.367 3.896 3.896 0 0 0 .55.329 3.065 3.065 0 0 0 .66.225 2.844 2.844 0 0 0 .78.056 3.267 3.267 0 0 0 .59-.09 4.01 4.01 0 0 0 .61-.2l1.121-2.71z" style="fill:#939598;fill-opacity:1;stroke-width:.8" transform="translate(-11.907 -5.629)"/></svg>