<svg xmlns="http://www.w3.org/2000/svg" xml:space="preserve" width="49.822" height="49.805" viewBox="0 0 13.182 13.177"><g style="fill:#ccc;stroke-width:1.19658"><g style="stroke-width:1.19658"><path d="M83.02 2.061a.882.882 0 0 0-.805.654l-2.524 9.418a.882.882 0 0 0 .625 1.082.882.882 0 0 0 1.08-.625l2.524-9.418a.882.882 0 0 0-.625-1.082.882.882 0 0 0-.275-.029Zm2.299 1.19a.882.882 0 0 0-.805.653l-2.524 9.418a.882.882 0 0 0 .625 1.082.882.882 0 0 0 1.08-.624L86.22 4.36a.882.882 0 0 0-.625-1.082.882.882 0 0 0-.275-.028Zm2.122 1.805a.882.882 0 0 0-.806.651l-2.524 9.42a.882.882 0 0 0 .626 1.08.882.882 0 0 0 1.08-.623l2.523-9.42a.882.882 0 0 0-.625-1.08.882.882 0 0 0-.274-.028Z" style="color:#000;fill:#ccc;fill-opacity:1;stroke-width:1.19658;stroke-linecap:round;-inkscape-stroke:none" transform="matrix(.83572 0 0 .83572 -60.67 -1.722)"/></g></g><path d="m79.235 10.243 1.16-.215.728.199 1.226.497 1.06.248.298 2.833-.828 3.155h-3.578z" style="fill:#ccc;fill-opacity:1;stroke:none;stroke-width:.264583px;stroke-linecap:butt;stroke-linejoin:miter;stroke-opacity:1" transform="translate(-72.304 -3.782)"/><g style="fill:#787878;fill-opacity:1;stroke-width:1.19658"><path d="M80.258 2.159a.882.882 0 0 0-.737.645l-2.355 8.79-.044.045-1.045.387-1.876-2.542a.9.9 0 0 0-1.158-.254.9.9 0 0 0-.405 1.116l2.001 5.127-.012.034.898 2.27h5.634l-.08-10.935-.623 2.299-.755-.165-.007.007 1.533-5.721a.882.882 0 0 0-.625-1.08.882.882 0 0 0-.344-.023Z" style="color:#000;fill:#787878;fill-opacity:1;stroke-width:1.19658;stroke-linecap:round;-inkscape-stroke:none" transform="matrix(.83572 0 0 .83572 -60.654 -1.68)"/></g><path d="m77.156 11.552 1.265 1.88-1.264 1.88h3.378v-.023l1.249-1.856-1.249-1.857v-.024z" style="fill:#fff;fill-opacity:1;stroke-width:.264583px" transform="translate(-72.304 -3.782)"/><path d="m77.172 11.594 1.265 1.88-1.264 1.88h3.379v-.023l1.248-1.856-1.248-1.857v-.024z" style="fill:#fff;fill-opacity:1;stroke-width:.264583px" transform="translate(-72.304 -3.782)"/></svg>