<svg xmlns="http://www.w3.org/2000/svg" xml:space="preserve" width="52.087" height="52.072" viewBox="0 0 13.781 13.777"><path d="M81.016 3.783a.738.738 0 0 0-.673.546l-1.146 4.275-.308 1.137-.631-.138-.006.007 1.28-4.782a.738.738 0 0 0-.521-.902.738.738 0 0 0-.287-.02.738.738 0 0 0-.616.54l-1.968 7.345-.037.038-.874.323-1.567-2.124a.752.752 0 0 0-.968-.212.752.752 0 0 0-.338.932l1.672 4.286-.01.028.75 1.897h8.111l.828-3.154-.003-.032 1.758-6.561a.738.738 0 0 0-.523-.903.738.738 0 0 0-.229-.024.738.738 0 0 0-.674.545l-1.08 4.036-.607-.142-.004-.002 1.344-5.017a.738.738 0 0 0-.522-.904.738.738 0 0 0-.23-.024.738.738 0 0 0-.673.546l-1.302 4.86-.568-.155-.054.01 1.428-5.327a.738.738 0 0 0-.523-.904.738.738 0 0 0-.23-.024Z" style="color:#000;fill:#3e3e3e;fill-opacity:1;stroke:#3e3e3e;stroke-width:.6;stroke-linecap:round;stroke-dasharray:none;stroke-opacity:1;stroke-linejoin:round" transform="translate(-72.005 -3.482)"/><g style="fill:#ccc;stroke-width:1.19658"><path d="M89.352 2.061a.882.882 0 0 0-.805.654l-2.524 9.418a.882.882 0 0 0 .625 1.082.882.882 0 0 0 1.08-.625l2.524-9.418a.882.882 0 0 0-.625-1.082.882.882 0 0 0-.275-.029Zm2.299 1.19a.882.882 0 0 0-.805.653l-2.524 9.418a.882.882 0 0 0 .625 1.082.882.882 0 0 0 1.08-.624l2.524-9.419a.882.882 0 0 0-.625-1.082.882.882 0 0 0-.275-.028Zm2.122 1.805a.882.882 0 0 0-.806.651l-2.524 9.42a.882.882 0 0 0 .625 1.08.882.882 0 0 0 1.08-.623l2.524-9.42a.882.882 0 0 0-.625-1.08.882.882 0 0 0-.274-.028Z" style="color:#000;fill:#ccc;fill-opacity:1;stroke-width:1.19658;stroke-linecap:round;-inkscape-stroke:none" transform="matrix(.83572 0 0 .83572 -65.662 -1.422)"/></g><path d="m79.235 10.243 1.16-.215.728.199 1.226.497 1.06.248.298 2.833-.828 3.155h-3.578z" style="fill:#ccc;fill-opacity:1;stroke:none;stroke-width:.264583px;stroke-linecap:butt;stroke-linejoin:miter;stroke-opacity:1" transform="translate(-72.005 -3.482)"/><g style="fill:#787878;fill-opacity:1;stroke-width:1.19658"><path d="M80.258 2.159a.882.882 0 0 0-.737.645l-2.355 8.79-.044.045-1.045.387-1.876-2.542a.9.9 0 0 0-1.158-.254.9.9 0 0 0-.405 1.116l2.001 5.127-.012.034.898 2.27h5.634l-.08-10.935-.623 2.299-.755-.165-.007.007 1.533-5.721a.882.882 0 0 0-.625-1.08.882.882 0 0 0-.344-.023Z" style="color:#000;fill:#787878;fill-opacity:1;stroke-width:1.19658;stroke-linecap:round;-inkscape-stroke:none" transform="matrix(.83572 0 0 .83572 -60.354 -1.38)"/></g><path d="m77.156 11.552 1.265 1.88-1.264 1.88h3.378v-.023l1.249-1.856-1.249-1.857v-.024z" style="fill:#fff;fill-opacity:1;stroke-width:.264583px" transform="translate(-72.005 -3.482)"/><path d="m77.172 11.594 1.265 1.88-1.264 1.88h3.379v-.023l1.248-1.856-1.248-1.857v-.024z" style="fill:#fff;fill-opacity:1;stroke-width:.264583px" transform="translate(-72.005 -3.482)"/></svg>