<svg xmlns="http://www.w3.org/2000/svg" xml:space="preserve" width="52.087" height="52.072" viewBox="0 0 13.781 13.777"><g style="fill:#3e3e3e;fill-opacity:1;stroke:#3e3e3e;stroke-width:.717947;stroke-dasharray:none;stroke-opacity:1"><path d="M83.001 2.011a.882.882 0 0 0-.806.654l-1.37 5.114-.369 1.362-.755-.165-.007.007 1.533-5.721a.882.882 0 0 0-.625-1.08.882.882 0 0 0-.344-.023.882.882 0 0 0-.737.645l-2.355 8.79-.044.045-1.045.387-1.876-2.542a.9.9 0 0 0-1.158-.254.9.9 0 0 0-.405 1.116l2.001 5.127-.012.034.898 2.27h9.706l.99-3.774-.003-.038 2.103-7.851a.882.882 0 0 0-.626-1.08.882.882 0 0 0-.273-.029.882.882 0 0 0-.807.652l-1.293 4.83-.726-.17-.005-.003L86.2 4.311a.882.882 0 0 0-.624-1.082.882.882 0 0 0-.275-.028.882.882 0 0 0-.805.653l-1.558 5.815-.68-.185-.064.012L83.9 3.122a.882.882 0 0 0-.625-1.082A.882.882 0 0 0 83 2.01z" style="color:#000;fill:#3e3e3e;fill-opacity:1;stroke:#3e3e3e;stroke-width:.717947;stroke-linecap:round;stroke-dasharray:none;stroke-opacity:1" transform="matrix(.83572 0 0 .83572 -60.354 -1.38)"/></g><g style="fill:#ccc;stroke-width:1.19658"><g style="stroke-width:1.19658"><path d="M83.02 2.061a.882.882 0 0 0-.805.654l-2.524 9.418a.882.882 0 0 0 .625 1.082.882.882 0 0 0 1.08-.625l2.524-9.418a.882.882 0 0 0-.625-1.082.882.882 0 0 0-.275-.029Zm2.299 1.19a.882.882 0 0 0-.805.653l-2.524 9.418a.882.882 0 0 0 .625 1.082.882.882 0 0 0 1.08-.624L86.22 4.36a.882.882 0 0 0-.625-1.082.882.882 0 0 0-.275-.028Zm2.122 1.805a.882.882 0 0 0-.806.651l-2.524 9.42a.882.882 0 0 0 .626 1.08.882.882 0 0 0 1.08-.623l2.523-9.42a.882.882 0 0 0-.625-1.08.882.882 0 0 0-.274-.028Z" style="color:#000;fill:#ccc;fill-opacity:1;stroke-width:1.19658;stroke-linecap:round;-inkscape-stroke:none" transform="matrix(.83572 0 0 .83572 -60.37 -1.422)"/></g></g><path d="m79.235 10.243 1.16-.215.728.199 1.226.497 1.06.248.298 2.833-.828 3.155h-3.578z" style="fill:#ccc;fill-opacity:1;stroke:none;stroke-width:.264583px;stroke-linecap:butt;stroke-linejoin:miter;stroke-opacity:1" transform="translate(-72.005 -3.482)"/><g style="fill:#787878;fill-opacity:1;stroke-width:1.19658"><path d="M80.258 2.159a.882.882 0 0 0-.737.645l-2.355 8.79-.044.045-1.045.387-1.876-2.542a.9.9 0 0 0-1.158-.254.9.9 0 0 0-.405 1.116l2.001 5.127-.012.034.898 2.27h5.634l-.08-10.935-.623 2.299-.755-.165-.007.007 1.533-5.721a.882.882 0 0 0-.625-1.08.882.882 0 0 0-.344-.023Z" style="color:#000;fill:#787878;fill-opacity:1;stroke-width:1.19658;stroke-linecap:round;-inkscape-stroke:none" transform="matrix(.83572 0 0 .83572 -60.354 -1.38)"/></g><path d="m77.156 11.552 1.265 1.88-1.264 1.88h3.378v-.023l1.249-1.856-1.249-1.857v-.024z" style="fill:#fff;fill-opacity:1;stroke-width:.264583px" transform="translate(-72.005 -3.482)"/><path d="m77.172 11.594 1.265 1.88-1.264 1.88h3.379v-.023l1.248-1.856-1.248-1.857v-.024z" style="fill:#fff;fill-opacity:1;stroke-width:.264583px" transform="translate(-72.005 -3.482)"/></svg>