<svg xmlns="http://www.w3.org/2000/svg" xml:space="preserve" width="61.395" height="44.987" viewBox="0 0 16.244 11.903"><g transform="translate(-52.488 -4.876)"><ellipse cx="60.6" cy="10.95" rx="7.382" ry="5.829" style="fill:#343434;fill-opacity:1;stroke:none;stroke-width:.800001;stroke-linecap:round;stroke-dasharray:none;stroke-dashoffset:5.28;stroke-opacity:1;paint-order:stroke markers fill"/><path d="M49.35-21.726h2.944v1.811H49.35z" style="fill:#484848;fill-opacity:1;stroke:none;stroke-width:.1;stroke-linecap:round;stroke-linejoin:bevel;stroke-dasharray:none;stroke-dashoffset:5.28;stroke-opacity:1;paint-order:stroke markers fill" transform="rotate(31.47)"/><path d="M49.35-20.821h2.944v.906H49.35z" style="fill:#343434;fill-opacity:1;stroke:none;stroke-width:.1;stroke-linecap:round;stroke-linejoin:bevel;stroke-dasharray:none;stroke-dashoffset:5.28;stroke-opacity:1;paint-order:stroke markers fill" transform="rotate(31.47)"/><path d="M-54.078 41.495h2.944v1.811h-2.944z" style="fill:#484848;fill-opacity:1;stroke:none;stroke-width:.1;stroke-linecap:round;stroke-linejoin:bevel;stroke-dasharray:none;stroke-dashoffset:5.28;stroke-opacity:1;paint-order:stroke markers fill" transform="scale(-1 1) rotate(31.47)"/><path d="M-54.078 42.401h2.944v.906h-2.944z" style="fill:#343434;fill-opacity:1;stroke:none;stroke-width:.1;stroke-linecap:round;stroke-linejoin:bevel;stroke-dasharray:none;stroke-dashoffset:5.28;stroke-opacity:1;paint-order:stroke markers fill" transform="scale(-1 1) rotate(31.47)"/><path d="M54.683 7.461c.662-.742-.304-1.364-.455-1.747h12.9c-.67.813-1.58 1.053-.695 1.7Z" style="fill:#343434;fill-opacity:1;stroke:none;stroke-width:.264583px;stroke-linecap:butt;stroke-linejoin:miter;stroke-opacity:1"/><path d="M60.6 5.121a7.382 5.829 0 0 0-1.05.06 7.382 5.829 0 0 0-1.03.176 7.382 5.829 0 0 0-.986.291 7.382 5.829 0 0 0-.924.399 7.382 5.829 0 0 0-.844.498 7.382 5.829 0 0 0-.744.588 7.382 5.829 0 0 0-.632.666 7.382 5.829 0 0 0-.505.73 7.382 5.829 0 0 0-.368.78 7.382 5.829 0 0 0-.224.812 7.382 5.829 0 0 0-.075.83 7.382 5.829 0 0 0 .075.829 7.382 5.829 0 0 0 .224.812 7.382 5.829 0 0 0 .368.78 7.382 5.829 0 0 0 .505.73 7.382 5.829 0 0 0 .632.665 7.382 5.829 0 0 0 .744.588 7.382 5.829 0 0 0 .15.088c.4-.051.808-.104 1.18-.15a100.03 100.03 0 0 0 1.642-.218c.262-.037.52-.076.774-.118a22.794 22.794 0 0 0 2.228-.464 17.876 17.876 0 0 0 3.033-1.107 21.213 21.213 0 0 0 .82-.405 30.635 30.635 0 0 0 1.768-1.006c.182-.112.373-.238.561-.358a7.382 5.829 0 0 0 .06-.667 7.382 5.829 0 0 0-.008-.277 7.382 5.829 0 0 0-.026-.277 7.382 5.829 0 0 0-.04-.275 7.382 5.829 0 0 0-.06-.274 7.382 5.829 0 0 0-.074-.271 7.382 5.829 0 0 0-.09-.268 7.382 5.829 0 0 0-.108-.264 7.382 5.829 0 0 0-.122-.26 7.382 5.829 0 0 0-.139-.255 7.382 5.829 0 0 0-.153-.25 7.382 5.829 0 0 0-.169-.243 7.382 5.829 0 0 0-.183-.237 7.382 5.829 0 0 0-.197-.23 7.382 5.829 0 0 0-.21-.222 7.382 5.829 0 0 0-.224-.214 7.382 5.829 0 0 0-.236-.205 7.382 5.829 0 0 0-.249-.196 7.382 5.829 0 0 0-.26-.187 7.382 5.829 0 0 0-.27-.176 7.382 5.829 0 0 0-.282-.167 7.382 5.829 0 0 0-.291-.155 7.382 5.829 0 0 0-.3-.144 7.382 5.829 0 0 0-.308-.133 7.382 5.829 0 0 0-.316-.122 7.382 5.829 0 0 0-.323-.11 7.382 5.829 0 0 0-.329-.096 7.382 5.829 0 0 0-.335-.085 7.382 5.829 0 0 0-.34-.071 7.382 5.829 0 0 0-.343-.06 7.382 5.829 0 0 0-.346-.045 7.382 5.829 0 0 0-.349-.033 7.382 5.829 0 0 0-.35-.02 7.382 5.829 0 0 0-.352-.006Z" style="fill:#484848;fill-opacity:1;stroke-width:.800001;stroke-linecap:round;stroke-dashoffset:5.28;paint-order:stroke markers fill"/><path d="M54.653 7.485c.662-.742-.22-1.388-.37-1.771l12.815.023c-.922.946-1.412 1.137-.527 1.784z" style="mix-blend-mode:multiply;fill:#828282;fill-opacity:1;stroke:none;stroke-width:.264583px;stroke-linecap:butt;stroke-linejoin:miter;stroke-opacity:1"/><path d="M53.899 4.876h13.402v.933H53.899z" style="fill:#484848;fill-opacity:1;stroke:none;stroke-width:.1;stroke-linecap:round;stroke-linejoin:bevel;stroke-dasharray:none;stroke-dashoffset:5.28;stroke-opacity:1;paint-order:stroke markers fill"/><g style="stroke-width:1.49802"><path d="M75.667 5.6c-.009.017.5 1.754.489 1.768-.012.014-1.81-.196-1.824-.185-.015.012-.256 1.806-.273 1.814-.016.008-1.573-.915-1.591-.911-.018.004-.968 1.545-.986 1.546-.019 0-1.066-1.476-1.084-1.48-.018-.003-1.513 1.019-1.53 1.012-.017-.007-.373-1.782-.388-1.792-.015-.01-1.796.315-1.809.301-.012-.013.384-1.78.375-1.795-.01-.015-1.77-.443-1.775-.46-.007-.017 1.074-1.47 1.072-1.488-.003-.018-1.436-1.124-1.435-1.142.002-.018 1.58-.905 1.585-.923.005-.018-.855-1.611-.846-1.627.009-.016 1.811-.185 1.823-.199.012-.014-.125-1.819-.11-1.83.014-.012 1.729.568 1.745.56.017-.008.626-1.713.644-1.718.017-.004 1.349 1.223 1.367 1.222.018 0 1.268-1.31 1.286-1.307.018.003.735 1.665.752 1.672.017.007 1.692-.681 1.707-.67.015.01-.006 1.82.007 1.833.013.013 1.822.065 1.832.081.01.016-.746 1.66-.74 1.678.007.017 1.639.801 1.641.82.003.017-1.356 1.213-1.358 1.232-.001.018 1.17 1.398 1.166 1.415-.005.018-1.733.557-1.742.574z" style="fill:#fff;fill-opacity:1;stroke:none;stroke-width:.449404;stroke-linecap:round;stroke-dasharray:none;stroke-dashoffset:5.28;stroke-opacity:1;paint-order:stroke markers fill" transform="matrix(.85433 0 0 .84326 -.275 7.914)"/><path d="M83.895 5.692c-.063-.051-.141-.07-.342-.013a4.16 4.16 0 0 0-.671.268c-.169.09-.182.163-.207.217l-2.92 8.262c-.032.138.02.208.085.277l.292.27a.188.188 0 0 0 .103.052l.09.007 6.52-.01c.045-.006.052-.016.09-.056l.338-.318c.032-.034.033-.06.02-.1l-2.625-6.956c-.065-.153.063-.063-.034-.109l3.948 2.16c.121.087.119.033.17-.022l.39-.54c.068-.122-.025-.125-.039-.148z" style="fill:#ccc;fill-opacity:1;stroke:none;stroke-width:.396349px;stroke-linecap:butt;stroke-linejoin:miter;stroke-opacity:1" transform="translate(4.694 3.267) scale(.66755)"/><path d="M88.897 9.414c-.03.13-4.132-2.555-4.673-2.901-.035-.023-.04-.035-.078-.044l-.24-.005c-.064.004-.142.045-.14.094l.958 8.02c.016.043.03.061.083.075l2.466-.005c.032-.034.033-.06.02-.1l-2.625-6.956c-.065-.153.063-.063-.034-.109l3.948 2.16c.121.087.119.033.17-.022.228-.318.568-.781.145-.207z" style="fill:#a0a0a0;fill-opacity:1;stroke:none;stroke-width:.396349px;stroke-linecap:butt;stroke-linejoin:miter;stroke-opacity:1" transform="translate(4.694 3.267) scale(.66755)"/></g></g></svg>