<svg xmlns="http://www.w3.org/2000/svg" xml:space="preserve" width="61.395" height="44.987" viewBox="0 0 16.244 11.903"><g style="stroke-width:.828221" transform="matrix(1.2074 0 0 1.2074 -45.382 -4.739)"><ellipse cx="44.305" cy="8.955" rx="6.114" ry="4.827" style="fill:#343434;fill-opacity:1;stroke:none;stroke-width:.662577;stroke-linecap:round;stroke-dasharray:none;stroke-dashoffset:5.28;stroke-opacity:1;paint-order:stroke markers fill"/><path d="M35.794-15.019h2.438v1.5h-2.438z" style="fill:#484848;fill-opacity:1;stroke:none;stroke-width:.0828221;stroke-linecap:round;stroke-linejoin:bevel;stroke-dasharray:none;stroke-dashoffset:5.28;stroke-opacity:1;paint-order:stroke markers fill" transform="rotate(31.47)"/><path d="M35.794-14.269h2.438v.75h-2.438z" style="fill:#343434;fill-opacity:1;stroke:none;stroke-width:.0828221;stroke-linecap:round;stroke-linejoin:bevel;stroke-dasharray:none;stroke-dashoffset:5.28;stroke-opacity:1;paint-order:stroke markers fill" transform="rotate(31.47)"/><path d="M-39.828 31.198h2.438v1.5h-2.438z" style="fill:#484848;fill-opacity:1;stroke:none;stroke-width:.0828221;stroke-linecap:round;stroke-linejoin:bevel;stroke-dasharray:none;stroke-dashoffset:5.28;stroke-opacity:1;paint-order:stroke markers fill" transform="scale(-1 1) rotate(31.47)"/><path d="M-39.828 31.948h2.438v.75h-2.438z" style="fill:#343434;fill-opacity:1;stroke:none;stroke-width:.0828221;stroke-linecap:round;stroke-linejoin:bevel;stroke-dasharray:none;stroke-dashoffset:5.28;stroke-opacity:1;paint-order:stroke markers fill" transform="scale(-1 1) rotate(31.47)"/><path d="M39.404 6.066c.548-.615-.251-1.13-.377-1.448h10.684c-.555.674-1.308.873-.575 1.408z" style="fill:#343434;fill-opacity:1;stroke:none;stroke-width:.219133px;stroke-linecap:butt;stroke-linejoin:miter;stroke-opacity:1"/><path d="M44.305 4.128a6.114 4.827 0 0 0-.87.049 6.114 4.827 0 0 0-.852.146 6.114 4.827 0 0 0-.818.241 6.114 4.827 0 0 0-.765.33 6.114 4.827 0 0 0-.699.413 6.114 4.827 0 0 0-.616.487 6.114 4.827 0 0 0-.523.551 6.114 4.827 0 0 0-.418.605 6.114 4.827 0 0 0-.305.645 6.114 4.827 0 0 0-.186.673 6.114 4.827 0 0 0-.062.688 6.114 4.827 0 0 0 .062.686 6.114 4.827 0 0 0 .186.673 6.114 4.827 0 0 0 .305.646 6.114 4.827 0 0 0 .418.604 6.114 4.827 0 0 0 .523.552 6.114 4.827 0 0 0 .616.486 6.114 4.827 0 0 0 .125.074l.977-.125c.475-.06.925-.118 1.36-.18a33.99 33.99 0 0 0 1.265-.207 18.895 18.895 0 0 0 1.22-.275 14.804 14.804 0 0 0 2.849-1.08 18.813 18.813 0 0 0 1.056-.561c.244-.139.494-.287.752-.445.15-.093.309-.197.465-.297a6.114 4.827 0 0 0 .05-.551 6.114 4.827 0 0 0-.008-.23 6.114 4.827 0 0 0-.02-.23 6.114 4.827 0 0 0-.035-.228 6.114 4.827 0 0 0-.048-.226 6.114 4.827 0 0 0-.062-.225 6.114 4.827 0 0 0-.075-.222 6.114 4.827 0 0 0-.09-.219 6.114 4.827 0 0 0-.1-.215 6.114 4.827 0 0 0-.115-.211 6.114 4.827 0 0 0-.127-.207 6.114 4.827 0 0 0-.14-.201 6.114 4.827 0 0 0-.151-.197 6.114 4.827 0 0 0-.164-.19 6.114 4.827 0 0 0-.174-.184 6.114 4.827 0 0 0-.185-.177 6.114 4.827 0 0 0-.196-.17 6.114 4.827 0 0 0-.206-.162 6.114 4.827 0 0 0-.215-.155 6.114 4.827 0 0 0-.225-.146 6.114 4.827 0 0 0-.232-.138 6.114 4.827 0 0 0-.241-.129 6.114 4.827 0 0 0-.249-.12 6.114 4.827 0 0 0-.255-.11 6.114 4.827 0 0 0-.262-.1 6.114 4.827 0 0 0-.267-.09 6.114 4.827 0 0 0-.273-.08 6.114 4.827 0 0 0-.277-.07 6.114 4.827 0 0 0-.281-.06 6.114 4.827 0 0 0-.285-.049 6.114 4.827 0 0 0-.286-.038 6.114 4.827 0 0 0-.29-.027 6.114 4.827 0 0 0-.29-.016 6.114 4.827 0 0 0-.29-.006z" style="fill:#484848;fill-opacity:1;stroke-width:.662577;stroke-linecap:round;stroke-dashoffset:5.28;paint-order:stroke markers fill"/><g style="stroke-width:.828221"><ellipse cx="44.305" cy="8.886" rx="3.497" ry="3.489" style="fill:#969696;fill-opacity:1;stroke:none;stroke-width:.662576;stroke-linecap:round;stroke-dasharray:none;stroke-dashoffset:5.28;stroke-opacity:1;paint-order:stroke markers fill"/><path d="M44.305 5.397a3.497 3.49 0 0 0-.497.035 3.497 3.49 0 0 0-.488.106 3.497 3.49 0 0 0-.468.174 3.497 3.49 0 0 0-.438.239 3.497 3.49 0 0 0-.399.298 3.497 3.49 0 0 0-.353.352 3.497 3.49 0 0 0-.3.399 3.497 3.49 0 0 0-.238.436 3.497 3.49 0 0 0-.175.467 3.497 3.49 0 0 0-.105.486 3.497 3.49 0 0 0-.036.497 3.497 3.49 0 0 0 .036.496 3.497 3.49 0 0 0 .105.487 3.497 3.49 0 0 0 .175.466 3.497 3.49 0 0 0 .239.437 3.497 3.49 0 0 0 .3.399 3.497 3.49 0 0 0 .163.163 11.567 11.567 0 0 0 1.967-.547 13.388 13.388 0 0 0 1.139-.48 16.153 16.153 0 0 0 1.103-.573 21.01 21.01 0 0 0 .722-.426 26.364 26.364 0 0 0 1.036-.669 3.497 3.49 0 0 0-.007-.095 3.497 3.49 0 0 0-.02-.17 3.497 3.49 0 0 0-.03-.169 3.497 3.49 0 0 0-.038-.167 3.497 3.49 0 0 0-.046-.165 3.497 3.49 0 0 0-.054-.163 3.497 3.49 0 0 0-.061-.16 3.497 3.49 0 0 0-.07-.156 3.497 3.49 0 0 0-.077-.153 3.497 3.49 0 0 0-.085-.149 3.497 3.49 0 0 0-.092-.145 3.497 3.49 0 0 0-.099-.14 3.497 3.49 0 0 0-.105-.135 3.497 3.49 0 0 0-.112-.13 3.497 3.49 0 0 0-.118-.123 3.497 3.49 0 0 0-.125-.119 3.497 3.49 0 0 0-.13-.111 3.497 3.49 0 0 0-.135-.106 3.497 3.49 0 0 0-.14-.098 3.497 3.49 0 0 0-.146-.092 3.497 3.49 0 0 0-.15-.085 3.497 3.49 0 0 0-.152-.077 3.497 3.49 0 0 0-.157-.069 3.497 3.49 0 0 0-.16-.061 3.497 3.49 0 0 0-.163-.054 3.497 3.49 0 0 0-.166-.046 3.497 3.49 0 0 0-.168-.037 3.497 3.49 0 0 0-.169-.03 3.497 3.49 0 0 0-.17-.02 3.497 3.49 0 0 0-.171-.013 3.497 3.49 0 0 0-.172-.004Z" style="fill:#bcbdc0;stroke:none;stroke-width:.662576;stroke-linecap:round;stroke-dashoffset:5.28;paint-order:stroke markers fill"/></g><path d="M39.38 6.086c.548-.615-.182-1.15-.307-1.468l10.614.02c-.763.783-1.17.942-.436 1.477Z" style="mix-blend-mode:multiply;fill:#828282;fill-opacity:1;stroke:none;stroke-width:.219133px;stroke-linecap:butt;stroke-linejoin:miter;stroke-opacity:1"/><path d="M38.755 3.925h11.1v.773h-11.1z" style="opacity:1;fill:#484848;fill-opacity:1;stroke:none;stroke-width:.0828221;stroke-linecap:round;stroke-linejoin:bevel;stroke-dasharray:none;stroke-dashoffset:5.28;stroke-opacity:1;paint-order:stroke markers fill"/></g></svg>