<svg xmlns="http://www.w3.org/2000/svg" xml:space="preserve" width="59.672" height="58.75" viewBox="0 0 15.788 15.544"><path d="M75.836 5.691c-.008.015.331 1.664.32 1.677-.011.013-1.693-.044-1.707-.033-.013.01-.374 1.654-.39 1.662-.015.007-1.529-.73-1.545-.725-.017.004-1.015 1.36-1.032 1.36-.017 0-1.1-1.288-1.118-1.29-.017-.004-1.48.828-1.496.822-.015-.007-.481-1.624-.495-1.634-.015-.01-1.69.156-1.702.143-.011-.012.221-1.68.212-1.694-.009-.014-1.607-.545-1.612-.561-.006-.016.884-1.445.882-1.462-.002-.016-1.246-1.151-1.245-1.168.002-.017 1.396-.96 1.4-.976.006-.017-.669-1.56-.66-1.574.007-.015 1.665-.31 1.676-.322.01-.013.022-1.697.035-1.707.014-.01 1.647.395 1.663.387.015-.007.71-1.54.727-1.545.016-.004 1.344 1.031 1.36 1.03.018 0 1.276-1.118 1.293-1.115.017.003.809 1.488.825 1.495.015.006 1.62-.503 1.634-.494.014.01.133 1.689.145 1.701.012.013 1.685.2 1.694.214.009.015-.565 1.597-.56 1.613.007.016 1.459.867 1.461.884.002.017-1.166 1.23-1.167 1.246-.001.017.98 1.386.975 1.402-.005.017-1.565.649-1.573.664z" style="opacity:1;fill:#3e3e3f;fill-opacity:1;stroke:none;stroke-width:.308705;stroke-linecap:round;stroke-dasharray:none;stroke-dashoffset:5.28;stroke-opacity:1;paint-order:stroke markers fill" transform="matrix(1.24154 .07335 -.0724 1.22547 -80.384 -1.503)"/><path d="M93.167 5.761a.37.37 0 0 0-.123.019c-.108.03-.282.101-.369.148-.093.05-.1.09-.114.12l-1.608 4.55c-.018.075.01.114.047.152l.16.149c.014.015.036.023.057.028l.05.004 3.59-.005c.025-.004.029-.01.05-.032l.186-.174c.018-.02.018-.034.011-.056l-1.446-3.83c-.017-.04-.01-.05-.003-.052l2.16 1.181c.066.048.064.018.093-.012l.174-.241.04-.056c.038-.068-.013-.07-.021-.082l-2.868-1.784a.11.11 0 0 0-.066-.027zm9.668 0a.368.368 0 0 0-.122.019c-.109.03-.284.101-.37.148-.093.05-.1.09-.114.12l-1.608 4.55c-.018.075.01.114.047.152l.16.149c.013.015.035.023.057.028l.05.004 3.59-.005c.025-.004.028-.01.049-.032l.186-.174c.018-.02.019-.034.012-.056l-1.446-3.83c-.017-.04-.01-.05-.004-.052l2.16 1.181c.066.048.065.018.093-.012l.175-.241.04-.056c.037-.068-.013-.07-.021-.082L102.9 5.788a.11.11 0 0 0-.065-.027zm-6.848 2.076c0 .002-.003.003-.007.002.004 0 .007 0 .007-.002zm9.668 0c0 .002-.003.003-.008.002.004 0 .007 0 .008-.002z" style="fill:#3e3e3f;fill-opacity:1;stroke:#3e3e3f;stroke-width:.4;stroke-dasharray:none;stroke-opacity:1" transform="translate(-90.384 -2.174)"/><g style="stroke-width:1.81588"><path d="M78.143 5.584c-.062-.051-.14-.07-.34-.013a4.16 4.16 0 0 0-.672.268c-.169.09-.182.163-.207.217l-2.92 8.262c-.032.138.019.208.085.277l.292.27a.188.188 0 0 0 .103.052l.09.007 6.519-.01c.046-.006.053-.016.09-.056l.339-.318c.032-.034.033-.06.02-.1l-2.625-6.956c-.065-.153.063-.063-.034-.109l3.948 2.16c.121.087.119.033.17-.022l.39-.54c.068-.122-.025-.125-.04-.148z" style="fill:#fff;fill-opacity:1;stroke:none;stroke-width:.48045px;stroke-linecap:butt;stroke-linejoin:miter;stroke-opacity:1" transform="matrix(.5507 0 0 .5507 -40.185 .539)"/><path d="M83.146 9.306c-.03.13-4.132-2.555-4.673-2.901-.035-.023-.04-.035-.078-.044l-.24-.005c-.065.004-.142.045-.14.094l.958 8.02c.016.043.03.061.083.075l2.466-.005c.032-.034.033-.06.02-.1l-2.625-6.956c-.065-.153.063-.063-.034-.109l3.948 2.16c.121.087.119.033.17-.022.228-.318.568-.781.145-.207z" style="fill:#bcbdc0;fill-opacity:1;stroke:none;stroke-width:.48045px;stroke-linecap:butt;stroke-linejoin:miter;stroke-opacity:1" transform="matrix(.5507 0 0 .5507 -40.185 .539)"/></g><g style="stroke-width:1.81588"><path d="M78.143 5.584c-.062-.051-.14-.07-.34-.013a4.16 4.16 0 0 0-.672.268c-.169.09-.182.163-.207.217l-2.92 8.262c-.032.138.019.208.085.277l.292.27a.188.188 0 0 0 .103.052l.09.007 6.519-.01c.046-.006.053-.016.09-.056l.339-.318c.032-.034.033-.06.02-.1l-2.625-6.956c-.065-.153.063-.063-.034-.109l3.948 2.16c.121.087.119.033.17-.022l.39-.54c.068-.122-.025-.125-.04-.148z" style="fill:#fff;fill-opacity:1;stroke:none;stroke-width:.48045px;stroke-linecap:butt;stroke-linejoin:miter;stroke-opacity:1" transform="matrix(.5507 0 0 .5507 -35.315 -.112)"/><path d="M83.146 9.306c-.03.13-4.132-2.555-4.673-2.901-.035-.023-.04-.035-.078-.044l-.24-.005c-.065.004-.142.045-.14.094l.958 8.02c.016.043.03.061.083.075l2.466-.005c.032-.034.033-.06.02-.1l-2.625-6.956c-.065-.153.063-.063-.034-.109l3.948 2.16c.121.087.119.033.17-.022.228-.318.568-.781.145-.207z" style="fill:#bcbdc0;fill-opacity:1;stroke:none;stroke-width:.48045px;stroke-linecap:butt;stroke-linejoin:miter;stroke-opacity:1" transform="matrix(.5507 0 0 .5507 -35.315 -.112)"/></g><g style="stroke-width:1.81588"><path d="M78.143 5.584c-.062-.051-.14-.07-.34-.013a4.16 4.16 0 0 0-.672.268c-.169.09-.182.163-.207.217l-2.92 8.262c-.032.138.019.208.085.277l.292.27a.188.188 0 0 0 .103.052l.09.007 6.519-.01c.046-.006.053-.016.09-.056l.339-.318c.032-.034.033-.06.02-.1l-2.625-6.956c-.065-.153.063-.063-.034-.109l3.948 2.16c.121.087.119.033.17-.022l.39-.54c.068-.122-.025-.125-.04-.148z" style="fill:#fff;fill-opacity:1;stroke:none;stroke-width:.48045px;stroke-linecap:butt;stroke-linejoin:miter;stroke-opacity:1" transform="matrix(.5507 0 0 .5507 -30.517 .539)"/><path d="M83.146 9.306c-.03.13-4.132-2.555-4.673-2.901-.035-.023-.04-.035-.078-.044l-.24-.005c-.065.004-.142.045-.14.094l.958 8.02c.016.043.03.061.083.075l2.466-.005c.032-.034.033-.06.02-.1l-2.625-6.956c-.065-.153.063-.063-.034-.109l3.948 2.16c.121.087.119.033.17-.022.228-.318.568-.781.145-.207z" style="fill:#bcbdc0;fill-opacity:1;stroke:none;stroke-width:.48045px;stroke-linecap:butt;stroke-linejoin:miter;stroke-opacity:1" transform="matrix(.5507 0 0 .5507 -30.517 .539)"/></g><path d="M96.05 11.476v2.58h-.797L98.05 16.9l2.821-2.845h-.72v-2.58z" style="opacity:1;fill:#fff;stroke:none;stroke-width:.600001;stroke-linecap:round;stroke-linejoin:round;stroke-dashoffset:5.28;stroke-opacity:1;paint-order:stroke markers fill" transform="translate(-90.384 -2.174)"/></svg>