<svg xmlns="http://www.w3.org/2000/svg" xml:space="preserve" width="55.966" height="51.196" viewBox="0 0 14.808 13.546"><defs><clipPath id="a" clipPathUnits="userSpaceOnUse"><path d="M78.087 4.143c3.716-3.39 7.515-.762 7.464 2.841.079 3.15-4.399 6.769-7.464 9.245m0-12.086c-3.715-3.39-7.515-.762-7.464 2.841-.079 3.15 4.399 6.769 7.464 9.245" style="fill:#000;fill-opacity:.407843;stroke:none;stroke-width:.264583px;stroke-linecap:butt;stroke-linejoin:miter;stroke-opacity:1"/></clipPath></defs><path d="M78.1 4.783c3.685-3.362 7.453-.756 7.403 2.817.077 3.124-4.363 6.713-7.403 9.17m0-11.987c-3.685-3.362-7.453-.756-7.403 2.817-.078 3.124 4.363 6.713 7.403 9.17" style="fill:#282828;fill-opacity:1;stroke:none;stroke-width:.8;stroke-linecap:round;stroke-linejoin:miter;stroke-dasharray:none;stroke-opacity:1" transform="translate(-70.696 -3.224)"/><path d="M75.01 1.841v.757h.01a4.158 4.158 0 0 1 .658.132 4.699 4.699 0 0 1 .676.246 5.471 5.471 0 0 1 .689.368 6.554 6.554 0 0 1 .695.499 7.209 7.209 0 0 0-.695-.499 5.986 5.986 0 0 0-.689-.368 5.051 5.051 0 0 0-.676-.246 4.409 4.409 0 0 0-.658-.131h-.01v11.048a44.41 44.41 0 0 0 1.243 1.08 168.512 168.512 0 0 0 1.834 1.503c.383-.31.788-.638 1.204-.98a75.816 75.816 0 0 0 1.266-1.067c.21-.181.417-.365.624-.551V2.597c-.009 0-.018 0-.027.002a4.158 4.158 0 0 0-.658.13 4.698 4.698 0 0 0-.676.247 5.471 5.471 0 0 0-.689.369 6.554 6.554 0 0 0-.695.498 7.209 7.209 0 0 1 .695-.498 5.985 5.985 0 0 1 .689-.37 5.051 5.051 0 0 1 .676-.245 4.409 4.409 0 0 1 .658-.131l.027-.002V1.84Z" clip-path="url(#a)" style="fill:#646464;stroke-width:.604975;stroke-linecap:round;stroke-linejoin:round;stroke-dashoffset:5.28;paint-order:stroke markers fill" transform="matrix(.99178 0 0 .99178 -70.041 -2.55)"/><path d="M78.146 12.835a2.476 2.47 0 0 0-.046.003 2.476 2.47 0 0 0-2.373 1.968A93.46 93.46 0 0 0 78.1 16.77a90.693 90.693 0 0 0 2.454-2.034 2.476 2.47 0 0 0-2.408-1.901Z" style="fill:#969696;fill-opacity:1;stroke:none;stroke-width:.800003;stroke-linecap:round;stroke-dasharray:none;stroke-dashoffset:5.28;stroke-opacity:1;paint-order:stroke markers fill" transform="translate(-70.696 -3.224)"/><path d="M78.146 12.835a2.476 2.47 0 0 0-.046.003 2.476 2.47 0 0 0-.307.022 2.476 2.47 0 0 0-.172.037 2.476 2.47 0 0 0-.504.161 2.476 2.47 0 0 0-.31.17 2.476 2.47 0 0 0-.141.105 2.476 2.47 0 0 0-.603.636 2.476 2.47 0 0 0-.336.837 86.292 86.292 0 0 0 2.171 1.8l.157-.06.045-.02a9.864 9.864 0 0 0 .489-.215l.189-.093a71.983 71.983 0 0 0 1.776-1.482 2.476 2.47 0 0 0-.121-.377 2.476 2.47 0 0 0-.05-.11 2.476 2.47 0 0 0-.323-.51 2.476 2.47 0 0 0 0-.001 2.476 2.47 0 0 0-.08-.092 2.476 2.47 0 0 0-.172-.171 2.476 2.47 0 0 0-.092-.08 2.476 2.47 0 0 0-.095-.074 2.476 2.47 0 0 0-.203-.135 2.476 2.47 0 0 0-.105-.06 2.476 2.47 0 0 0-.109-.054 2.476 2.47 0 0 0-.34-.13 2.476 2.47 0 0 0-.236-.06 2.476 2.47 0 0 0-.12-.02 2.476 2.47 0 0 0-.241-.024 2.476 2.47 0 0 0-.121-.003z" style="fill:#bcbdc0;fill-opacity:1;stroke:none;stroke-width:.800003;stroke-linecap:round;stroke-dasharray:none;stroke-dashoffset:5.28;stroke-opacity:1;paint-order:stroke markers fill" transform="translate(-70.696 -3.224)"/><path d="M78.146 12.835a2.476 2.47 0 0 0-.353.025 2.476 2.47 0 0 0-.29.063 1.4 1.4 0 0 0 .175.122 1.863 1.863 0 0 0 .286.143 2.626 2.626 0 0 0 .317.106 3.655 3.655 0 0 0 .335.076 4.922 4.922 0 0 0 .507.068 7.049 7.049 0 0 0 .477.028c.072.003.138.003.203.005a2.476 2.47 0 0 0-.087-.075 2.476 2.47 0 0 0-.096-.075 2.476 2.47 0 0 0-.099-.07 2.476 2.47 0 0 0-.103-.065 2.476 2.47 0 0 0-.106-.06 2.476 2.47 0 0 0-.108-.054 2.476 2.47 0 0 0-.111-.05 2.476 2.47 0 0 0-.113-.043 2.476 2.47 0 0 0-.116-.038 2.476 2.47 0 0 0-.117-.032 2.476 2.47 0 0 0-.119-.027 2.476 2.47 0 0 0-.12-.02 2.476 2.47 0 0 0-.12-.015 2.476 2.47 0 0 0-.121-.01 2.476 2.47 0 0 0-.121-.002z" style="fill:#939598;fill-opacity:1;stroke-width:.264582px" transform="translate(-70.696 -3.224)"/><path d="M78.146 12.835a2.476 2.47 0 0 0-.353.025 2.476 2.47 0 0 0-.29.063 1.4 1.4 0 0 0 .175.122 1.863 1.863 0 0 0 .286.143 2.619 2.619 0 0 0 .317.106 3.655 3.655 0 0 0 .335.076 4.922 4.922 0 0 0 .507.068 7.104 7.104 0 0 0 .477.028c.072.003.138.003.203.005a2.476 2.47 0 0 0-.087-.075 2.476 2.47 0 0 0-.096-.075 2.476 2.47 0 0 0-.099-.07 2.476 2.47 0 0 0-.103-.065 2.476 2.47 0 0 0-.106-.06 2.476 2.47 0 0 0-.108-.054 2.476 2.47 0 0 0-.111-.05 2.476 2.47 0 0 0-.113-.043 2.476 2.47 0 0 0-.116-.038 2.476 2.47 0 0 0-.117-.032 2.476 2.47 0 0 0-.119-.027 2.476 2.47 0 0 0-.12-.02 2.476 2.47 0 0 0-.12-.015 2.476 2.47 0 0 0-.121-.01 2.476 2.47 0 0 0-.121-.002z" style="fill:#939598;fill-opacity:1;stroke-width:.264582px" transform="translate(-70.696 -3.224)"/><g style="stroke-width:1.00829" transform="matrix(.99178 0 0 .99178 -70.041 -2.55)"><ellipse cx="78.133" cy="9.81" rx="2.496" ry="2.491" style="fill:#bcbdc0;fill-opacity:1;stroke:none;stroke-width:.806634;stroke-linecap:round;stroke-dasharray:none;stroke-dashoffset:5.28;stroke-opacity:1;paint-order:stroke markers fill"/><path d="M78.133 7.32a2.496 2.49 0 0 0-.355.025 2.496 2.49 0 0 0-.348.075 2.496 2.49 0 0 0-.334.125 2.496 2.49 0 0 0-.312.17 2.496 2.49 0 0 0-.285.213 2.496 2.49 0 0 0-.252.251 2.496 2.49 0 0 0-.214.285 2.496 2.49 0 0 0-.17.311 2.496 2.49 0 0 0-.125.334 2.496 2.49 0 0 0-.076.347 2.496 2.49 0 0 0-.025.354 2.496 2.49 0 0 0 .025.355 2.496 2.49 0 0 0 .076.347 2.496 2.49 0 0 0 .125.333 2.496 2.49 0 0 0 .17.312 2.496 2.49 0 0 0 .214.284 2.496 2.49 0 0 0 .117.117 8.252 8.252 0 0 0 1.678-.497 10.04 10.04 0 0 0 .803-.366 12.47 12.47 0 0 0 .781-.429 16.762 16.762 0 0 0 .768-.48l.229-.152a2.496 2.49 0 0 0-.006-.068 2.496 2.49 0 0 0-.014-.121 2.496 2.49 0 0 0-.021-.12 2.496 2.49 0 0 0-.027-.12 2.496 2.49 0 0 0-.033-.118 2.496 2.49 0 0 0-.038-.116 2.496 2.49 0 0 0-.044-.114 2.496 2.49 0 0 0-.05-.112 2.496 2.49 0 0 0-.055-.109 2.496 2.49 0 0 0-.06-.106 2.496 2.49 0 0 0-.066-.103 2.496 2.49 0 0 0-.07-.1 2.496 2.49 0 0 0-.076-.097 2.496 2.49 0 0 0-.08-.092 2.496 2.49 0 0 0-.084-.089 2.496 2.49 0 0 0-.09-.084 2.496 2.49 0 0 0-.092-.08 2.496 2.49 0 0 0-.097-.075 2.496 2.49 0 0 0-.1-.07 2.496 2.49 0 0 0-.104-.066 2.496 2.49 0 0 0-.106-.06 2.496 2.49 0 0 0-.11-.055 2.496 2.49 0 0 0-.111-.05 2.496 2.49 0 0 0-.115-.044 2.496 2.49 0 0 0-.116-.038 2.496 2.49 0 0 0-.118-.033 2.496 2.49 0 0 0-.12-.026 2.496 2.49 0 0 0-.12-.021 2.496 2.49 0 0 0-.122-.016 2.496 2.49 0 0 0-.122-.008 2.496 2.49 0 0 0-.123-.003Z" style="fill:#dedede;fill-opacity:1;stroke:none;stroke-width:.806634;stroke-linecap:round;stroke-dashoffset:5.28;paint-order:stroke markers fill"/><path d="M78.133 7.32a2.496 2.49 0 0 0-.355.025 2.496 2.49 0 0 0-.292.063 1.415 1.415 0 0 0 .176.124 1.877 1.877 0 0 0 .289.144 2.647 2.647 0 0 0 .32.107 3.68 3.68 0 0 0 .336.076 4.966 4.966 0 0 0 .512.068 7.413 7.413 0 0 0 .481.03l.205.004a2.496 2.49 0 0 0-.088-.076 2.496 2.49 0 0 0-.097-.075 2.496 2.49 0 0 0-.1-.07 2.496 2.49 0 0 0-.104-.066 2.496 2.49 0 0 0-.106-.06 2.496 2.49 0 0 0-.11-.055 2.496 2.49 0 0 0-.111-.05 2.496 2.49 0 0 0-.115-.044 2.496 2.49 0 0 0-.116-.038 2.496 2.49 0 0 0-.118-.033 2.496 2.49 0 0 0-.12-.026 2.496 2.49 0 0 0-.12-.022 2.496 2.49 0 0 0-.122-.014 2.496 2.49 0 0 0-.122-.01 2.496 2.49 0 0 0-.123-.002z" style="fill:#bcbdc0;fill-opacity:1;stroke-width:.266776px"/></g><g style="stroke-width:1.00829"><path d="M79.762 3.004a6.626 6.626 0 0 0-1.675 1.14v3.234a2.496 2.49 0 0 0 .046.003 2.496 2.49 0 0 0 2.497-2.49 2.496 2.49 0 0 0-.868-1.887Zm-3.289.03a2.496 2.49 0 0 0-.836 1.857 2.496 2.49 0 0 0 2.45 2.487V4.143a6.672 6.672 0 0 0-1.614-1.11Z" style="fill:#969696;fill-opacity:1;stroke:none;stroke-width:.806634;stroke-linecap:round;stroke-dasharray:none;stroke-dashoffset:5.28;stroke-opacity:1;paint-order:stroke markers fill" transform="matrix(.99178 0 0 .99178 -70.041 -2.55)"/><path d="M79.762 3.004a6.626 6.626 0 0 0-1.675 1.14v1.979a9.935 9.935 0 0 0 1.02-.484 13.61 13.61 0 0 0 .776-.447 18.867 18.867 0 0 0 .74-.477 2.496 2.49 0 0 0-.006-.068 2.496 2.49 0 0 0-.014-.121 2.496 2.49 0 0 0-.021-.121 2.496 2.49 0 0 0-.027-.119 2.496 2.49 0 0 0-.033-.118 2.496 2.49 0 0 0-.039-.116 2.496 2.49 0 0 0-.044-.114 2.496 2.49 0 0 0-.05-.112 2.496 2.49 0 0 0-.054-.109 2.496 2.49 0 0 0-.06-.106 2.496 2.49 0 0 0-.066-.104 2.496 2.49 0 0 0-.07-.1 2.496 2.49 0 0 0-.076-.096 2.496 2.49 0 0 0-.08-.093 2.496 2.49 0 0 0-.085-.088 2.496 2.49 0 0 0-.088-.084 2.496 2.49 0 0 0-.049-.042zm-3.289.03a2.496 2.49 0 0 0-.226.226 2.496 2.49 0 0 0-.214.284 2.496 2.49 0 0 0-.17.312 2.496 2.49 0 0 0-.125.333 2.496 2.49 0 0 0-.075.348 2.496 2.49 0 0 0-.026.354 2.496 2.49 0 0 0 .026.354 2.496 2.49 0 0 0 .075.348 2.496 2.49 0 0 0 .125.333 2.496 2.49 0 0 0 .17.311 2.496 2.49 0 0 0 .214.285 2.496 2.49 0 0 0 .117.116 8.236 8.236 0 0 0 1.678-.496l.045-.02V4.144a6.672 6.672 0 0 0-1.614-1.11Z" style="fill:#bcbdc0;fill-opacity:1;stroke:none;stroke-width:.266776px;stroke-linecap:butt;stroke-linejoin:miter;stroke-opacity:1" transform="matrix(.99178 0 0 .99178 -70.041 -2.55)"/></g></svg>