<svg xmlns="http://www.w3.org/2000/svg" xml:space="preserve" width="58.99" height="54.195" viewBox="0 0 15.608 14.339"><defs><clipPath id="a" clipPathUnits="userSpaceOnUse"><path d="M78.087 4.143c3.716-3.39 7.515-.762 7.464 2.841.079 3.15-4.399 6.769-7.464 9.245m0-12.086c-3.715-3.39-7.515-.762-7.464 2.841-.079 3.15 4.399 6.769 7.464 9.245" style="fill:#000;fill-opacity:.407843;stroke:none;stroke-width:.264583px;stroke-linecap:butt;stroke-linejoin:miter;stroke-opacity:1"/></clipPath></defs><g style="stroke-width:1.14453"><path d="M76.98 4.058c4.217-3.848 8.53-.865 8.472 3.225.089 3.574-4.994 7.683-8.473 10.494m0-13.72c-4.217-3.847-8.53-.864-8.473 3.226-.089 3.574 4.994 7.683 8.473 10.494" style="fill:#282828;fill-opacity:1;stroke:#282828;stroke-width:.915626;stroke-linecap:round;stroke-linejoin:miter;stroke-dasharray:none;stroke-opacity:1" transform="matrix(.87372 0 0 .87372 -59.454 -1.593)"/><path d="M76.98 4.058c4.217-3.848 8.53-.865 8.472 3.225.089 3.574-4.994 7.683-8.473 10.494m0-13.72c-4.217-3.847-8.53-.864-8.473 3.226-.089 3.574 4.994 7.683 8.473 10.494" style="fill:#282828;fill-opacity:1;stroke:none;stroke-width:.302823px;stroke-linecap:butt;stroke-linejoin:miter;stroke-opacity:1" transform="matrix(.87372 0 0 .87372 -59.454 -1.593)"/><path d="M75.01 1.841v.757h.01a4.158 4.158 0 0 1 .658.132 4.699 4.699 0 0 1 .676.246 5.471 5.471 0 0 1 .689.368 6.554 6.554 0 0 1 .695.499 7.209 7.209 0 0 0-.695-.499 5.986 5.986 0 0 0-.689-.368 5.051 5.051 0 0 0-.676-.246 4.409 4.409 0 0 0-.658-.131h-.01v11.048a44.41 44.41 0 0 0 1.243 1.08 168.512 168.512 0 0 0 1.834 1.503c.383-.31.788-.638 1.204-.98a75.816 75.816 0 0 0 1.266-1.067c.21-.181.417-.365.624-.551V2.597c-.009 0-.018 0-.027.002a4.158 4.158 0 0 0-.658.13 4.698 4.698 0 0 0-.676.247 5.471 5.471 0 0 0-.689.369 6.554 6.554 0 0 0-.695.498 7.209 7.209 0 0 1 .695-.498 5.985 5.985 0 0 1 .689-.37 5.051 5.051 0 0 1 .676-.245 4.409 4.409 0 0 1 .658-.131l.027-.002V1.84Z" clip-path="url(#a)" style="fill:#646464;stroke-width:.604975;stroke-linecap:round;stroke-linejoin:round;stroke-dashoffset:5.28;paint-order:stroke markers fill" transform="matrix(.99178 0 0 .99178 -69.641 -2.157)"/><path d="M77.032 13.273a2.834 2.827 0 0 0-.053.004 2.834 2.827 0 0 0-2.716 2.252c.935.808 1.873 1.567 2.716 2.248a103.8 103.8 0 0 0 2.81-2.328 2.834 2.827 0 0 0-2.757-2.176z" style="fill:#969696;fill-opacity:1;stroke:none;stroke-width:.915629;stroke-linecap:round;stroke-dasharray:none;stroke-dashoffset:5.28;stroke-opacity:1;paint-order:stroke markers fill" transform="matrix(.87372 0 0 .87372 -59.454 -1.593)"/><path d="M77.032 13.273a2.834 2.827 0 0 0-.053.004 2.834 2.827 0 0 0-.35.026 2.834 2.827 0 0 0-.198.042 2.834 2.827 0 0 0-.577.184 2.834 2.827 0 0 0-.355.194 2.834 2.827 0 0 0-.161.12 2.834 2.827 0 0 0-.69.73 2.834 2.827 0 0 0-.385.956 98.767 98.767 0 0 0 2.486 2.061l.18-.07.05-.021a11.29 11.29 0 0 0 .56-.247l.216-.106a82.384 82.384 0 0 0 2.033-1.697 2.834 2.827 0 0 0-.139-.43 2.834 2.827 0 0 0-.056-.127 2.834 2.827 0 0 0-.37-.584 2.834 2.827 0 0 0-.001-.001 2.834 2.827 0 0 0-.09-.104 2.834 2.827 0 0 0-.001 0 2.834 2.827 0 0 0-.197-.197 2.834 2.827 0 0 0-.105-.09 2.834 2.827 0 0 0-.11-.086 2.834 2.827 0 0 0-.231-.154 2.834 2.827 0 0 0-.12-.069 2.834 2.827 0 0 0-.125-.062 2.834 2.827 0 0 0-.388-.15 2.834 2.827 0 0 0-.001 0 2.834 2.827 0 0 0-.27-.067 2.834 2.827 0 0 0-.137-.023 2.834 2.827 0 0 0-.276-.028 2.834 2.827 0 0 0-.14-.003z" style="fill:#bcbdc0;fill-opacity:1;stroke:none;stroke-width:.915629;stroke-linecap:round;stroke-dasharray:none;stroke-dashoffset:5.28;stroke-opacity:1;paint-order:stroke markers fill" transform="matrix(.87372 0 0 .87372 -59.454 -1.593)"/><path d="M77.032 13.274a2.834 2.827 0 0 0-.404.029 2.834 2.827 0 0 0-.331.072 1.6 1.6 0 0 0 .2.14 2.135 2.135 0 0 0 .327.163 3.011 3.011 0 0 0 .363.122 4.173 4.173 0 0 0 .383.086 5.658 5.658 0 0 0 .388.058 7.502 7.502 0 0 0 .38.034c.125.009.245.015.359.018.082.003.157.004.232.005a2.834 2.827 0 0 0-.1-.086 2.834 2.827 0 0 0-.11-.085 2.834 2.827 0 0 0-.113-.08 2.834 2.827 0 0 0-.118-.074 2.834 2.827 0 0 0-.12-.069 2.834 2.827 0 0 0-.125-.062 2.834 2.827 0 0 0-.127-.056 2.834 2.827 0 0 0-.13-.05 2.834 2.827 0 0 0-.132-.044 2.834 2.827 0 0 0-.134-.037 2.834 2.827 0 0 0-.136-.03 2.834 2.827 0 0 0-.137-.024 2.834 2.827 0 0 0-.138-.017 2.834 2.827 0 0 0-.138-.01 2.834 2.827 0 0 0-.14-.003z" style="fill:#939598;fill-opacity:1;stroke-width:.302823px" transform="matrix(.87372 0 0 .87372 -59.454 -1.593)"/><path d="M77.032 13.274a2.834 2.827 0 0 0-.404.029 2.834 2.827 0 0 0-.331.072 1.6 1.6 0 0 0 .2.14 2.135 2.135 0 0 0 .327.163 3.004 3.004 0 0 0 .363.122 4.173 4.173 0 0 0 .383.086 5.658 5.658 0 0 0 .388.058 7.457 7.457 0 0 0 .38.034c.125.009.245.015.359.018.082.003.157.004.232.005a2.834 2.827 0 0 0-.1-.086 2.834 2.827 0 0 0-.11-.085 2.834 2.827 0 0 0-.113-.08 2.834 2.827 0 0 0-.118-.074 2.834 2.827 0 0 0-.12-.069 2.834 2.827 0 0 0-.125-.062 2.834 2.827 0 0 0-.127-.056 2.834 2.827 0 0 0-.13-.05 2.834 2.827 0 0 0-.132-.044 2.834 2.827 0 0 0-.134-.037 2.834 2.827 0 0 0-.136-.03 2.834 2.827 0 0 0-.137-.024 2.834 2.827 0 0 0-.138-.017 2.834 2.827 0 0 0-.138-.01 2.834 2.827 0 0 0-.14-.003z" style="fill:#939598;fill-opacity:1;stroke-width:.302823px" transform="matrix(.87372 0 0 .87372 -59.454 -1.593)"/><g style="stroke-width:1.00829" transform="matrix(.99178 0 0 .99178 -69.641 -2.157)"><ellipse cx="78.133" cy="9.81" rx="2.496" ry="2.491" style="fill:#bcbdc0;fill-opacity:1;stroke:none;stroke-width:.806634;stroke-linecap:round;stroke-dasharray:none;stroke-dashoffset:5.28;stroke-opacity:1;paint-order:stroke markers fill"/><path d="M78.133 7.32a2.496 2.49 0 0 0-.355.025 2.496 2.49 0 0 0-.348.075 2.496 2.49 0 0 0-.334.125 2.496 2.49 0 0 0-.312.17 2.496 2.49 0 0 0-.285.213 2.496 2.49 0 0 0-.252.251 2.496 2.49 0 0 0-.214.285 2.496 2.49 0 0 0-.17.311 2.496 2.49 0 0 0-.125.334 2.496 2.49 0 0 0-.076.347 2.496 2.49 0 0 0-.025.354 2.496 2.49 0 0 0 .025.355 2.496 2.49 0 0 0 .076.347 2.496 2.49 0 0 0 .125.333 2.496 2.49 0 0 0 .17.312 2.496 2.49 0 0 0 .214.284 2.496 2.49 0 0 0 .117.117 8.252 8.252 0 0 0 1.678-.497 10.04 10.04 0 0 0 .803-.366 12.47 12.47 0 0 0 .781-.429 16.762 16.762 0 0 0 .768-.48l.229-.152a2.496 2.49 0 0 0-.006-.068 2.496 2.49 0 0 0-.014-.121 2.496 2.49 0 0 0-.021-.12 2.496 2.49 0 0 0-.027-.12 2.496 2.49 0 0 0-.033-.118 2.496 2.49 0 0 0-.038-.116 2.496 2.49 0 0 0-.044-.114 2.496 2.49 0 0 0-.05-.112 2.496 2.49 0 0 0-.055-.109 2.496 2.49 0 0 0-.06-.106 2.496 2.49 0 0 0-.066-.103 2.496 2.49 0 0 0-.07-.1 2.496 2.49 0 0 0-.076-.097 2.496 2.49 0 0 0-.08-.092 2.496 2.49 0 0 0-.084-.089 2.496 2.49 0 0 0-.09-.084 2.496 2.49 0 0 0-.092-.08 2.496 2.49 0 0 0-.097-.075 2.496 2.49 0 0 0-.1-.07 2.496 2.49 0 0 0-.104-.066 2.496 2.49 0 0 0-.106-.06 2.496 2.49 0 0 0-.11-.055 2.496 2.49 0 0 0-.111-.05 2.496 2.49 0 0 0-.115-.044 2.496 2.49 0 0 0-.116-.038 2.496 2.49 0 0 0-.118-.033 2.496 2.49 0 0 0-.12-.026 2.496 2.49 0 0 0-.12-.021 2.496 2.49 0 0 0-.122-.016 2.496 2.49 0 0 0-.122-.008 2.496 2.49 0 0 0-.123-.003Z" style="fill:#dedede;fill-opacity:1;stroke:none;stroke-width:.806634;stroke-linecap:round;stroke-dashoffset:5.28;paint-order:stroke markers fill"/><path d="M78.133 7.32a2.496 2.49 0 0 0-.355.025 2.496 2.49 0 0 0-.292.063 1.415 1.415 0 0 0 .176.124 1.877 1.877 0 0 0 .289.144 2.647 2.647 0 0 0 .32.107 3.68 3.68 0 0 0 .336.076 4.966 4.966 0 0 0 .512.068 7.413 7.413 0 0 0 .481.03l.205.004a2.496 2.49 0 0 0-.088-.076 2.496 2.49 0 0 0-.097-.075 2.496 2.49 0 0 0-.1-.07 2.496 2.49 0 0 0-.104-.066 2.496 2.49 0 0 0-.106-.06 2.496 2.49 0 0 0-.11-.055 2.496 2.49 0 0 0-.111-.05 2.496 2.49 0 0 0-.115-.044 2.496 2.49 0 0 0-.116-.038 2.496 2.49 0 0 0-.118-.033 2.496 2.49 0 0 0-.12-.026 2.496 2.49 0 0 0-.12-.022 2.496 2.49 0 0 0-.122-.014 2.496 2.49 0 0 0-.122-.01 2.496 2.49 0 0 0-.123-.002z" style="fill:#bcbdc0;fill-opacity:1;stroke-width:.266776px"/></g><g style="stroke-width:1.00829"><path d="M79.762 3.004a6.626 6.626 0 0 0-1.675 1.14v3.234a2.496 2.49 0 0 0 .046.003 2.496 2.49 0 0 0 2.497-2.49 2.496 2.49 0 0 0-.868-1.887Zm-3.289.03a2.496 2.49 0 0 0-.836 1.857 2.496 2.49 0 0 0 2.45 2.487V4.143a6.672 6.672 0 0 0-1.614-1.11Z" style="fill:#969696;fill-opacity:1;stroke:none;stroke-width:.806634;stroke-linecap:round;stroke-dasharray:none;stroke-dashoffset:5.28;stroke-opacity:1;paint-order:stroke markers fill" transform="matrix(.99178 0 0 .99178 -69.641 -2.157)"/><path d="M79.762 3.004a6.626 6.626 0 0 0-1.675 1.14v1.979a9.935 9.935 0 0 0 1.02-.484 13.61 13.61 0 0 0 .776-.447 18.867 18.867 0 0 0 .74-.477 2.496 2.49 0 0 0-.006-.068 2.496 2.49 0 0 0-.014-.121 2.496 2.49 0 0 0-.021-.121 2.496 2.49 0 0 0-.027-.119 2.496 2.49 0 0 0-.033-.118 2.496 2.49 0 0 0-.039-.116 2.496 2.49 0 0 0-.044-.114 2.496 2.49 0 0 0-.05-.112 2.496 2.49 0 0 0-.054-.109 2.496 2.49 0 0 0-.06-.106 2.496 2.49 0 0 0-.066-.104 2.496 2.49 0 0 0-.07-.1 2.496 2.49 0 0 0-.076-.096 2.496 2.49 0 0 0-.08-.093 2.496 2.49 0 0 0-.085-.088 2.496 2.49 0 0 0-.088-.084 2.496 2.49 0 0 0-.049-.042zm-3.289.03a2.496 2.49 0 0 0-.226.226 2.496 2.49 0 0 0-.214.284 2.496 2.49 0 0 0-.17.312 2.496 2.49 0 0 0-.125.333 2.496 2.49 0 0 0-.075.348 2.496 2.49 0 0 0-.026.354 2.496 2.49 0 0 0 .026.354 2.496 2.49 0 0 0 .075.348 2.496 2.49 0 0 0 .125.333 2.496 2.49 0 0 0 .17.311 2.496 2.49 0 0 0 .214.285 2.496 2.49 0 0 0 .117.116 8.236 8.236 0 0 0 1.678-.496l.045-.02V4.144a6.672 6.672 0 0 0-1.614-1.11Z" style="fill:#bcbdc0;fill-opacity:1;stroke:none;stroke-width:.266776px;stroke-linecap:butt;stroke-linejoin:miter;stroke-opacity:1" transform="matrix(.99178 0 0 .99178 -69.641 -2.157)"/></g></g></svg>