<svg xmlns="http://www.w3.org/2000/svg" xml:space="preserve" width="66.912" height="48.738" viewBox="0 0 17.704 12.895"><path d="M15.99 10.982a2.756 2.75 0 0 1-2.755 2.75 2.756 2.75 0 0 1-2.756-2.75 2.756 2.75 0 0 1 2.756-2.75 2.756 2.75 0 0 1 2.755 2.75z" style="fill:#bcbdc0;stroke-width:.115428;stroke-linecap:round;stroke-dashoffset:5.28;paint-order:stroke markers fill" transform="translate(-10.079 -4.576)"/><path d="M11.278 12.919c1.765-.323 3.202-1.118 4.7-2.128.181 1.728-1.113 2.449-1.575 2.694-1.536.632-2.525-.022-3.125-.566z" style="fill:#939598;fill-opacity:1;stroke:none;stroke-width:.101801px;stroke-linecap:butt;stroke-linejoin:miter;stroke-opacity:1" transform="translate(-10.079 -4.576)"/><path d="m12.345 9.465-.673.707.853.81-.853.81.673.708.89-.845.889.845.673-.707-.853-.811.853-.81-.673-.707-.89.844z" style="color:#000;fill:#3e3e3f;fill-opacity:1;stroke-width:1.22755;-inkscape-stroke:none" transform="translate(-10.079 -4.576)"/><path d="m16.777 4.976 5.704.056-1.836 2.957 1.023.799-2.13 2.845.98.28-4.19 5.158 1.892-4.723-1.457-.168 1.85-2.804-2.257-.434z" style="opacity:1;fill:#823d7d;fill-opacity:1;stroke:none;stroke-width:.065;stroke-linecap:butt;stroke-linejoin:miter;stroke-dasharray:none;stroke-opacity:1" transform="translate(-10.079 -4.576)"/><path d="m16.777 4.976 3.37.034-1.38 3.091 1.92.715-2.229 2.929 1.094.168-3.224 5.158 1.892-4.723-1.457-.168 1.85-2.804-2.257-.434Z" style="opacity:.882096;fill:#b0589d;fill-opacity:1;stroke:none;stroke-width:.065;stroke-linecap:butt;stroke-linejoin:miter;stroke-dasharray:none;stroke-opacity:1" transform="translate(-10.079 -4.576)"/><path d="M15.99 10.982a2.756 2.75 0 0 1-2.755 2.75 2.756 2.75 0 0 1-2.756-2.75 2.756 2.75 0 0 1 2.756-2.75 2.756 2.75 0 0 1 2.755 2.75z" style="fill:#bcbdc0;stroke-width:.115428;stroke-linecap:round;stroke-dashoffset:5.28;paint-order:stroke markers fill" transform="translate(-10.079 -4.576)"/><path d="M11.278 12.919c1.765-.323 3.202-1.118 4.7-2.128.181 1.728-1.113 2.449-1.575 2.694-1.536.632-2.525-.022-3.125-.566z" style="fill:#939598;fill-opacity:1;stroke:none;stroke-width:.101801px;stroke-linecap:butt;stroke-linejoin:miter;stroke-opacity:1" transform="translate(-10.079 -4.576)"/><path d="m12.345 9.465-.673.707.853.81-.853.81.673.708.89-.845.889.845.673-.707-.853-.811.853-.81-.673-.707-.89.844z" style="color:#000;fill:#3e3e3f;fill-opacity:1;stroke-width:1.22755;-inkscape-stroke:none" transform="translate(-10.079 -4.576)"/><path d="M15.99 10.982a2.756 2.75 0 0 1-2.755 2.75 2.756 2.75 0 0 1-2.756-2.75 2.756 2.75 0 0 1 2.756-2.75 2.756 2.75 0 0 1 2.755 2.75z" style="fill:#bcbdc0;stroke-width:.115428;stroke-linecap:round;stroke-dashoffset:5.28;paint-order:stroke markers fill" transform="translate(1.31 -4.576)"/><path d="M11.278 12.919c1.765-.323 3.202-1.118 4.7-2.128.181 1.728-1.113 2.449-1.575 2.694-1.536.632-2.525-.022-3.125-.566z" style="fill:#939598;fill-opacity:1;stroke:none;stroke-width:.101801px;stroke-linecap:butt;stroke-linejoin:miter;stroke-opacity:1" transform="translate(1.31 -4.576)"/><path d="m12.345 9.465-.673.707.853.81-.853.81.673.708.89-.845.889.845.673-.707-.853-.811.853-.81-.673-.707-.89.844z" style="color:#000;fill:#3e3e3f;fill-opacity:1;stroke-width:1.22755;-inkscape-stroke:none" transform="translate(1.31 -4.576)"/></svg>