<svg xmlns="http://www.w3.org/2000/svg" xml:space="preserve" width="60.078" height="59.175" viewBox="0 0 15.896 15.657"><g style="stroke-width:.888462" transform="translate(-143.767 27.275) scale(1.12554)"><path d="M138.489-15.461a15.952 15.952 0 0 1-1.408.936l-.169.098a1.92 1.92 0 0 1-.325.544 2.212 2.212 0 0 1-.348.333 2.708 2.708 0 0 1-.329.223 4.43 4.43 0 0 1-.171.095 3.34 3.34 0 0 1-.454.148 2.544 2.544 0 0 1-.51.066 2.168 2.168 0 0 1-.448-.043 2.014 2.014 0 0 1-.164-.041c-.028-.008-.054-.019-.082-.028l-.162.057a15.007 15.007 0 0 1-1.252.355c-.133.032-.267.06-.4.088a3.657 3.658 0 0 0 .18.18 3.657 3.658 0 0 0 .202.163 3.657 3.658 0 0 0 .215.15 3.657 3.658 0 0 0 .224.133 3.657 3.658 0 0 0 .234.116 3.657 3.658 0 0 0 .241.1 3.657 3.658 0 0 0 .248.083 3.657 3.658 0 0 0 .252.064 3.657 3.658 0 0 0 .258.047 3.657 3.658 0 0 0 .259.028 3.657 3.658 0 0 0 .26.01 3.657 3.658 0 0 0 .262-.01 3.657 3.658 0 0 0 .26-.028 3.657 3.658 0 0 0 .257-.047 3.657 3.658 0 0 0 .252-.064 3.657 3.658 0 0 0 .248-.082 3.657 3.658 0 0 0 .241-.1 3.657 3.658 0 0 0 .234-.117 3.657 3.658 0 0 0 .224-.134 3.657 3.658 0 0 0 .215-.149 3.657 3.658 0 0 0 .203-.163 3.657 3.658 0 0 0 .191-.178 3.657 3.658 0 0 0 .178-.191 3.657 3.658 0 0 0 .164-.204 3.657 3.658 0 0 0 .149-.214 3.657 3.658 0 0 0 .133-.225 3.657 3.658 0 0 0 .117-.233 3.657 3.658 0 0 0 .1-.242 3.657 3.658 0 0 0 .082-.247 3.657 3.658 0 0 0 .065-.253 3.657 3.658 0 0 0 .046-.257 3.657 3.658 0 0 0 .028-.26 3.657 3.658 0 0 0 .009-.26 3.657 3.658 0 0 0 0-.004 3.657 3.658 0 0 0 0-.004 3.657 3.658 0 0 0 0-.003 3.657 3.658 0 0 0 0-.004 3.657 3.658 0 0 0 0-.004 3.657 3.658 0 0 0 0-.003 3.657 3.658 0 0 0 0-.004 3.657 3.658 0 0 0 0-.003 3.657 3.658 0 0 0 0-.004 3.657 3.658 0 0 0 0-.004 3.657 3.658 0 0 0 0-.003 3.657 3.658 0 0 0 0-.004 3.657 3.658 0 0 0 0-.003 3.657 3.658 0 0 0 0-.004 3.657 3.658 0 0 0 0-.004 3.657 3.658 0 0 0 0-.003 3.657 3.658 0 0 0 0-.003 3.657 3.658 0 0 0 0-.004 3.657 3.658 0 0 0 0-.004 3.657 3.658 0 0 0 0-.003 3.657 3.658 0 0 0 0-.004 3.657 3.658 0 0 0 0-.003 3.657 3.658 0 0 0 0-.004 3.657 3.658 0 0 0-.001-.004 3.657 3.658 0 0 0 0-.003 3.657 3.658 0 0 0 0-.004 3.657 3.658 0 0 0 0-.003 3.657 3.658 0 0 0 0-.004 3.657 3.658 0 0 0 0-.004 3.657 3.658 0 0 0 0-.003 3.657 3.658 0 0 0 0-.004 3.657 3.658 0 0 0 0-.003 3.657 3.658 0 0 0 0-.004 3.657 3.658 0 0 0 0-.004 3.657 3.658 0 0 0-.001-.003 3.657 3.658 0 0 0 0-.003 3.657 3.658 0 0 0 0-.004 3.657 3.658 0 0 0 0-.003 3.657 3.658 0 0 0 0-.004 3.657 3.658 0 0 0 0-.004 3.657 3.658 0 0 0 0-.003 3.657 3.658 0 0 0 0-.004 3.657 3.658 0 0 0-.001-.003 3.657 3.658 0 0 0 0-.004 3.657 3.658 0 0 0 0-.004 3.657 3.658 0 0 0 0-.003 3.657 3.658 0 0 0 0-.004 3.657 3.658 0 0 0 0-.003 3.657 3.658 0 0 0 0-.004 3.657 3.658 0 0 0-.001-.004 3.657 3.658 0 0 0-.005-.066z" style="mix-blend-mode:normal;fill:#666;fill-opacity:1;stroke:#3e3e3f;stroke-width:.533077;stroke-linecap:round;stroke-dasharray:none;stroke-dashoffset:5.28;stroke-opacity:1;paint-order:stroke markers fill"/><path d="M75.667 5.6c-.009.017.5 1.754.489 1.768-.012.014-1.81-.196-1.824-.185-.015.012-.256 1.806-.273 1.814-.016.008-1.573-.915-1.591-.911-.018.004-.968 1.545-.986 1.546-.019 0-1.066-1.476-1.084-1.48-.018-.003-1.513 1.019-1.53 1.012-.017-.007-.373-1.782-.388-1.792-.015-.01-1.796.315-1.809.301-.012-.013.384-1.78.375-1.795-.01-.015-1.77-.443-1.775-.46-.007-.017 1.074-1.47 1.072-1.488-.003-.018-1.436-1.124-1.435-1.142.002-.018 1.58-.905 1.585-.923.005-.018-.855-1.611-.846-1.627.009-.016 1.811-.185 1.823-.199.012-.014-.125-1.819-.11-1.83.014-.012 1.729.568 1.745.56.017-.008.626-1.713.644-1.718.017-.004 1.349 1.223 1.367 1.222.018 0 1.268-1.31 1.286-1.307.018.003.735 1.665.752 1.672.017.007 1.692-.681 1.707-.67.015.01-.006 1.82.007 1.833.013.013 1.822.065 1.832.081.01.016-.746 1.66-.74 1.678.007.017 1.639.801 1.641.82.003.017-1.356 1.213-1.358 1.232-.001.018 1.17 1.398 1.166 1.415-.005.018-1.733.557-1.742.574z" style="opacity:1;fill:#3e3e3f;fill-opacity:1;stroke:none;stroke-width:.30658;stroke-linecap:round;stroke-dasharray:none;stroke-dashoffset:5.28;stroke-opacity:1;paint-order:stroke markers fill" transform="matrix(1.11264 0 0 1.09824 55.512 -20.9)"/><path d="M133.06-21.42v.757h.596v1.805l.08-.026-.08.026a3.686 3.686 0 0 0-.875.41 3.689 3.689 0 0 0-1.694 3.103 3.7 3.7 0 0 0 .901 2.416 3.7 3.7 0 0 0 .192.191 3.688 3.689 0 0 0 .18.181 3.688 3.689 0 0 0 .421.316 3.688 3.689 0 0 0 .462.252 3.688 3.689 0 0 0 .493.184 3.688 3.689 0 0 0 .514.112 3.688 3.689 0 0 0 .526.037 3.688 3.689 0 0 0 .524-.037 3.688 3.689 0 0 0 .515-.112 3.688 3.689 0 0 0 .493-.184 3.688 3.689 0 0 0 .462-.252 3.688 3.689 0 0 0 .421-.316 3.688 3.689 0 0 0 .372-.372 3.688 3.689 0 0 0 .316-.421 3.688 3.689 0 0 0 .251-.462 3.688 3.689 0 0 0 .185-.493 3.688 3.689 0 0 0 .111-.515 3.688 3.689 0 0 0 .038-.525 3.688 3.689 0 0 0-.004-.18 3.688 3.689 0 0 0-.005-.068 3.634 3.634 0 0 0-.149-.823 3.7 3.7 0 0 0-1.053-1.662 3.77 3.77 0 0 0-.9-.602 3.674 3.674 0 0 0-.467-.182v-1.8h.596v-.759zm1.716 2.386zm.181.005zm.18.013zm.18.022zm.179.031zm.176.04zm.479 1.906c-.12.143-.248.295-.388.464l-.119.146.119-.146c.14-.169.267-.32.388-.464zm-1.38.283a1.402 1.402 0 0 1 .396.06 1.314 1.314 0 0 1-.396-.06zm0 0a1.392 1.392 0 0 0-.396.06 1.303 1.303 0 0 0-.45.242 1.389 1.389 0 0 0-.255.283 1.356 1.356 0 0 0-.199.476 1.254 1.254 0 0 0-.02.133l-.002.035.002-.035a1.229 1.229 0 0 1 .053-.26 1.316 1.316 0 0 1 1.267-.934zm-.856 1.24-.002.002.002-.002zm-.015.018zm1.867.019zm1.398.012a6.106 6.106 0 0 1 .101.123l-.014-.018a7.55 7.55 0 0 0-.087-.105zm.118.146v.001zm-.391.003v.002a1.914 1.914 0 0 1-.007.107l-.014.106a1.748 1.748 0 0 1-.043.208 2.55 2.55 0 0 1-.061.2 2.148 2.148 0 0 1-.082.19l-.026.051a1.449 1.449 0 0 0 .07-.145 2.035 2.035 0 0 0 .123-.399c.007-.034.013-.07.018-.105l.014-.106c.004-.035.006-.071.008-.107v-.002zm-.8.03a1.205 1.205 0 0 1-.053.26 1.308 1.308 0 0 1-.422.63 1.316 1.316 0 0 1-.846.303 1.361 1.361 0 0 1-.634-.16 1.332 1.332 0 0 1 .498.153 1.36 1.36 0 0 0 .77-.153 1.33 1.33 0 0 0 .59-.65 1.308 1.308 0 0 0 .096-.384zm1.677.156a16.6 16.6 0 0 0 0 0z" style="fill:#bcbdc0;stroke:none;stroke-width:.71077;stroke-linecap:round;stroke-dasharray:none;stroke-dashoffset:5.28;stroke-opacity:1;paint-order:stroke markers fill"/><path d="M133.731-20.586h2.21v2.933h-2.21z" style="fill:#bcbdc0;fill-opacity:1;stroke:none;stroke-width:.799618;stroke-linecap:round;stroke-dasharray:none;stroke-dashoffset:5.28;stroke-opacity:1;paint-order:stroke markers fill"/><path d="M133.484-22.62v1.023h.442v.591h1.82v-.59h.443v-1.024z" style="fill:#fff;fill-opacity:1;stroke:none;stroke-width:.799618;stroke-linecap:round;stroke-dashoffset:5.28;paint-order:stroke markers fill"/><path d="M133.058-21.286h3.429v.752h-3.429z" style="fill:#bcbdc0;fill-opacity:1;stroke:none;stroke-width:.799618;stroke-linecap:round;stroke-dasharray:none;stroke-dashoffset:5.28;stroke-opacity:1;paint-order:stroke markers fill"/><path d="M133.884-20.39v.42h1.905V-20.389h-.196v.148h-1.513v-.148z" style="fill:#272b2c;fill-opacity:1;stroke:none;stroke-width:.799618;stroke-linecap:round;stroke-dashoffset:5.28;paint-order:stroke markers fill"/><path d="M134.154-19.97h1.365v.246h-1.365z" style="fill:#fff;fill-opacity:1;stroke:none;stroke-width:.79961;stroke-linecap:round;stroke-dasharray:none;stroke-dashoffset:5.28;stroke-opacity:1;paint-order:stroke markers fill"/><path d="M134.841-18.873a3.657 3.658 0 0 0-.52.037 3.657 3.658 0 0 0-.51.112 3.657 3.658 0 0 0-.49.182 3.657 3.658 0 0 0-.458.25 3.657 3.658 0 0 0-.417.313 3.657 3.658 0 0 0-.369.369 3.657 3.658 0 0 0-.313.417 3.657 3.658 0 0 0-.25.458 3.657 3.658 0 0 0-.182.49 3.657 3.658 0 0 0-.111.51 3.657 3.658 0 0 0-.037.52 3.657 3.658 0 0 0 .037.52 3.657 3.658 0 0 0 .11.51 3.657 3.658 0 0 0 .183.49 3.657 3.658 0 0 0 .25.458 3.657 3.658 0 0 0 .313.417 3.657 3.658 0 0 0 .19.19 13.658 13.658 0 0 0 1.651-.443 15.391 15.391 0 0 0 1.623-.643 16.447 16.447 0 0 0 1.908-1.033 16.548 16.548 0 0 0 1.04-.712 3.657 3.658 0 0 0-.008-.112 3.657 3.658 0 0 0-.022-.179 3.657 3.658 0 0 0-.031-.177 3.657 3.658 0 0 0-.039-.175 3.657 3.658 0 0 0-.048-.173 3.657 3.658 0 0 0-.056-.17 3.657 3.658 0 0 0-.065-.168 3.657 3.658 0 0 0-.073-.164 3.657 3.658 0 0 0-.08-.16 3.657 3.658 0 0 0-.09-.156 3.657 3.658 0 0 0-.095-.152 3.657 3.658 0 0 0-.103-.147 3.657 3.658 0 0 0-.11-.141 3.657 3.658 0 0 0-.118-.137 3.657 3.658 0 0 0-.124-.13 3.657 3.658 0 0 0-.13-.123 3.657 3.658 0 0 0-.136-.117 3.657 3.658 0 0 0-.142-.11 3.657 3.658 0 0 0-.146-.104 3.657 3.658 0 0 0-.152-.096 3.657 3.658 0 0 0-.156-.089 3.657 3.658 0 0 0-.16-.08 3.657 3.658 0 0 0-.165-.074 3.657 3.658 0 0 0-.167-.064 3.657 3.658 0 0 0-.17-.056 3.657 3.658 0 0 0-.174-.048 3.657 3.658 0 0 0-.174-.04 3.657 3.658 0 0 0-.177-.03 3.657 3.658 0 0 0-.178-.022 3.657 3.658 0 0 0-.18-.013 3.657 3.658 0 0 0-.179-.005z" style="fill:#bcbdc0;stroke:none;stroke-width:.109487;stroke-linecap:round;stroke-dashoffset:5.28;paint-order:stroke markers fill"/><ellipse cx="134.777" cy="-15.293" rx="2.27" ry="2.264" style="fill:#fff;fill-opacity:1;stroke:none;stroke-width:.710772;stroke-linecap:round;stroke-dasharray:none;stroke-dashoffset:5.28;stroke-opacity:1;paint-order:stroke markers fill"/><path d="m134.081-13.13.249-.087a15.734 15.734 0 0 0 1.212-.498 16.499 16.499 0 0 0 1.164-.593c.07-.039.137-.08.206-.119l.004-.01a1.905 1.905 0 0 0 .108-.405 1.874 1.874 0 0 0 .024-.23 2.414 2.414 0 0 0-.012-.378 22.872 22.872 0 0 1-.69.447 15.23 15.23 0 0 1-.693.402 11.064 11.064 0 0 1-.708.349 8.768 8.768 0 0 1-.988.364 7.618 7.618 0 0 1-.791.19 4.088 4.088 0 0 0 .2.17 3.057 3.057 0 0 0 .36.241 2.297 2.297 0 0 0 .283.133c.023.009.048.016.072.024z" style="fill:#969696;stroke-width:.710772"/><path d="M134.081-13.13c.028.01.054.02.082.028a2.012 2.012 0 0 0 .81.072 2.333 2.333 0 0 0 .422-.082 2.905 2.905 0 0 0 .343-.12 4.388 4.388 0 0 0 .275-.158 2.93 2.93 0 0 0 .343-.257 2.335 2.335 0 0 0 .337-.375 1.878 1.878 0 0 0 .219-.405l-.206.119a16.743 16.743 0 0 1-2.376 1.091l-.249.087z" style="mix-blend-mode:multiply;fill:#a0a0a0;fill-opacity:1;stroke-width:.109487;stroke-linecap:round;stroke-dashoffset:5.28;paint-order:stroke markers fill"/><path d="M138.489-15.461a15.952 15.952 0 0 1-1.408.936l-.169.098a1.92 1.92 0 0 1-.325.544 2.212 2.212 0 0 1-.348.333 2.708 2.708 0 0 1-.329.223 4.43 4.43 0 0 1-.171.095 3.34 3.34 0 0 1-.454.148 2.544 2.544 0 0 1-.51.066 2.168 2.168 0 0 1-.448-.043 2.014 2.014 0 0 1-.164-.041c-.028-.008-.054-.019-.082-.028l-.162.057a15.007 15.007 0 0 1-1.252.355c-.133.032-.267.06-.4.088a3.657 3.658 0 0 0 .18.18 3.657 3.658 0 0 0 .202.163 3.657 3.658 0 0 0 .215.15 3.657 3.658 0 0 0 .224.133 3.657 3.658 0 0 0 .234.116 3.657 3.658 0 0 0 .241.1 3.657 3.658 0 0 0 .248.083 3.657 3.658 0 0 0 .252.064 3.657 3.658 0 0 0 .258.047 3.657 3.658 0 0 0 .259.028 3.657 3.658 0 0 0 .26.01 3.657 3.658 0 0 0 .262-.01 3.657 3.658 0 0 0 .26-.028 3.657 3.658 0 0 0 .257-.047 3.657 3.658 0 0 0 .252-.064 3.657 3.658 0 0 0 .248-.082 3.657 3.658 0 0 0 .241-.1 3.657 3.658 0 0 0 .234-.117 3.657 3.658 0 0 0 .224-.134 3.657 3.658 0 0 0 .215-.149 3.657 3.658 0 0 0 .203-.163 3.657 3.658 0 0 0 .191-.178 3.657 3.658 0 0 0 .178-.191 3.657 3.658 0 0 0 .164-.204 3.657 3.658 0 0 0 .149-.214 3.657 3.658 0 0 0 .133-.225 3.657 3.658 0 0 0 .117-.233 3.657 3.658 0 0 0 .1-.242 3.657 3.658 0 0 0 .082-.247 3.657 3.658 0 0 0 .065-.253 3.657 3.658 0 0 0 .046-.257 3.657 3.658 0 0 0 .028-.26 3.657 3.658 0 0 0 .009-.26 3.657 3.658 0 0 0 0-.004 3.657 3.658 0 0 0 0-.004 3.657 3.658 0 0 0 0-.003 3.657 3.658 0 0 0 0-.004 3.657 3.658 0 0 0 0-.004 3.657 3.658 0 0 0 0-.003 3.657 3.658 0 0 0 0-.004 3.657 3.658 0 0 0 0-.003 3.657 3.658 0 0 0 0-.004 3.657 3.658 0 0 0 0-.004 3.657 3.658 0 0 0 0-.003 3.657 3.658 0 0 0 0-.004 3.657 3.658 0 0 0 0-.003 3.657 3.658 0 0 0 0-.004 3.657 3.658 0 0 0 0-.004 3.657 3.658 0 0 0 0-.003 3.657 3.658 0 0 0 0-.003 3.657 3.658 0 0 0 0-.004 3.657 3.658 0 0 0 0-.004 3.657 3.658 0 0 0 0-.003 3.657 3.658 0 0 0 0-.004 3.657 3.658 0 0 0 0-.003 3.657 3.658 0 0 0 0-.004 3.657 3.658 0 0 0-.001-.004 3.657 3.658 0 0 0 0-.003 3.657 3.658 0 0 0 0-.004 3.657 3.658 0 0 0 0-.003 3.657 3.658 0 0 0 0-.004 3.657 3.658 0 0 0 0-.004 3.657 3.658 0 0 0 0-.003 3.657 3.658 0 0 0 0-.004 3.657 3.658 0 0 0 0-.003 3.657 3.658 0 0 0 0-.004 3.657 3.658 0 0 0 0-.004 3.657 3.658 0 0 0-.001-.003 3.657 3.658 0 0 0 0-.003 3.657 3.658 0 0 0 0-.004 3.657 3.658 0 0 0 0-.003 3.657 3.658 0 0 0 0-.004 3.657 3.658 0 0 0 0-.004 3.657 3.658 0 0 0 0-.003 3.657 3.658 0 0 0 0-.004 3.657 3.658 0 0 0-.001-.003 3.657 3.658 0 0 0 0-.004 3.657 3.658 0 0 0 0-.004 3.657 3.658 0 0 0 0-.003 3.657 3.658 0 0 0 0-.004 3.657 3.658 0 0 0 0-.003 3.657 3.658 0 0 0 0-.004 3.657 3.658 0 0 0-.001-.004 3.657 3.658 0 0 0-.005-.066z" style="mix-blend-mode:normal;fill:#666;fill-opacity:1;stroke:none;stroke-width:.109487;stroke-linecap:round;stroke-dashoffset:5.28;paint-order:stroke markers fill"/></g></svg>