<svg xmlns="http://www.w3.org/2000/svg" xml:space="preserve" width="60.078" height="59.175" viewBox="0 0 15.896 15.657"><g transform="translate(-13.493 -1.373)"><path d="M75.667 5.6c-.009.017.5 1.754.489 1.768-.012.014-1.81-.196-1.824-.185-.015.012-.256 1.806-.273 1.814-.016.008-1.573-.915-1.591-.911-.018.004-.968 1.545-.986 1.546-.019 0-1.066-1.476-1.084-1.48-.018-.003-1.513 1.019-1.53 1.012-.017-.007-.373-1.782-.388-1.792-.015-.01-1.796.315-1.809.301-.012-.013.384-1.78.375-1.795-.01-.015-1.77-.443-1.775-.46-.007-.017 1.074-1.47 1.072-1.488-.003-.018-1.436-1.124-1.435-1.142.002-.018 1.58-.905 1.585-.923.005-.018-.855-1.611-.846-1.627.009-.016 1.811-.185 1.823-.199.012-.014-.125-1.819-.11-1.83.014-.012 1.729.568 1.745.56.017-.008.626-1.713.644-1.718.017-.004 1.349 1.223 1.367 1.222.018 0 1.268-1.31 1.286-1.307.018.003.735 1.665.752 1.672.017.007 1.692-.681 1.707-.67.015.01-.006 1.82.007 1.833.013.013 1.822.065 1.832.081.01.016-.746 1.66-.74 1.678.007.017 1.639.801 1.641.82.003.017-1.356 1.213-1.358 1.232-.001.018 1.17 1.398 1.166 1.415-.005.018-1.733.557-1.742.574z" style="fill:#3e3e3f;fill-opacity:1;stroke:none;stroke-width:.30658;stroke-linecap:round;stroke-dasharray:none;stroke-dashoffset:5.28;stroke-opacity:1;paint-order:stroke markers fill" transform="matrix(1.25232 0 0 1.2361 -67.794 5.123)"/><path d="M19.49 4.538v.853h.671v2.032l.09-.03-.09.03a4.149 4.149 0 0 0-.984.46 4.152 4.152 0 0 0-1.865 2.903 4.17 4.17 0 0 0 .333 2.316 4.15 4.15 0 0 0 .639.993c.07.075.141.147.215.216a4.151 4.152 0 0 0 .204.204 4.151 4.152 0 0 0 .474.355 4.151 4.152 0 0 0 .52.283 4.151 4.152 0 0 0 .554.208 4.151 4.152 0 0 0 .58.126 4.151 4.152 0 0 0 .59.042 4.151 4.152 0 0 0 .59-.042 4.151 4.152 0 0 0 .58-.126 4.151 4.152 0 0 0 .555-.208 4.151 4.152 0 0 0 .52-.283 4.151 4.152 0 0 0 .474-.355 4.151 4.152 0 0 0 .419-.42 4.151 4.152 0 0 0 .355-.474 4.151 4.152 0 0 0 .283-.52 4.151 4.152 0 0 0 .208-.554 4.151 4.152 0 0 0 .125-.58 4.151 4.152 0 0 0 .042-.59 4.151 4.152 0 0 0-.004-.204 4.151 4.152 0 0 0-.006-.075c-.002-.043-.004-.086-.008-.128a4.146 4.146 0 0 0-.572-1.728 4.275 4.275 0 0 0-.35-.5 4.111 4.111 0 0 0-1.435-1.12 4.138 4.138 0 0 0-.526-.204V5.39h.671v-.853Zm1.932 2.686zm.204.005zm.203.015zm.202.026zm.2.034zm.2.045zm.538 2.145c-.136.162-.279.333-.436.523l-.134.164.133-.164c.158-.19.3-.361.437-.523zm-1.553.32a1.578 1.578 0 0 1 .446.066 1.48 1.48 0 0 1-.446-.067zm0 0a1.567 1.567 0 0 0-.446.066 1.465 1.465 0 0 0-.391.188 1.5 1.5 0 0 0-.54.657 1.476 1.476 0 0 0-.108.432l-.003.04c0-.014.002-.027.003-.04a1.383 1.383 0 0 1 .058-.293 1.484 1.484 0 0 1 1.427-1.05zm-.964 1.394-.002.003.002-.003zm-.016.021zm2.1.02zm1.574.015a6.894 6.894 0 0 1 .115.139l-.016-.02a8.403 8.403 0 0 0-.099-.119zm.133.164.001.002v-.002zm-.44.004v.001c-.001.041-.004.082-.008.122l-.016.119a1.946 1.946 0 0 1-.048.233 2.876 2.876 0 0 1-.069.225 2.413 2.413 0 0 1-.091.215l-.03.057a1.631 1.631 0 0 0 .078-.163 2.29 2.29 0 0 0 .139-.449 2.52 2.52 0 0 0 .02-.118c.006-.04.012-.08.016-.12.005-.04.007-.08.01-.12v-.002zm-.901.032a1.357 1.357 0 0 1-.06.294 1.472 1.472 0 0 1-.473.71 1.483 1.483 0 0 1-1.106.332 1.525 1.525 0 0 1-.43-.109 1.482 1.482 0 0 1 .886.087 1.491 1.491 0 0 0 1.012-.751 1.494 1.494 0 0 0 .171-.563zm1.889.176a18.698 18.698 0 0 0 0 0z" style="fill:#bcbdc0;stroke:none;stroke-width:.8;stroke-linecap:round;stroke-dasharray:none;stroke-dashoffset:5.28;stroke-opacity:1;paint-order:stroke markers fill"/><path d="M20.246 5.477h2.488v3.301h-2.488z" style="fill:#bcbdc0;fill-opacity:1;stroke:none;stroke-width:.900003;stroke-linecap:round;stroke-dasharray:none;stroke-dashoffset:5.28;stroke-opacity:1;paint-order:stroke markers fill"/><path d="M19.967 3.188V4.34h.498v.665h2.048V4.34h.499V3.188Z" style="fill:#fff;fill-opacity:1;stroke:none;stroke-width:.900003;stroke-linecap:round;stroke-dashoffset:5.28;paint-order:stroke markers fill"/><path d="M19.487 4.69h3.86v.846h-3.86z" style="fill:#bcbdc0;fill-opacity:1;stroke:none;stroke-width:.900003;stroke-linecap:round;stroke-dasharray:none;stroke-dashoffset:5.28;stroke-opacity:1;paint-order:stroke markers fill"/><path d="M20.417 5.699v.472h2.145v-.472h-.221v.167h-1.702v-.167Z" style="fill:#272b2c;fill-opacity:1;stroke:none;stroke-width:.900003;stroke-linecap:round;stroke-dashoffset:5.28;paint-order:stroke markers fill"/><path d="M20.722 6.171h1.536v.277h-1.536z" style="fill:#fff;fill-opacity:1;stroke:none;stroke-width:.899994;stroke-linecap:round;stroke-dasharray:none;stroke-dashoffset:5.28;stroke-opacity:1;paint-order:stroke markers fill"/><path d="M21.495 7.405a4.116 4.117 0 0 0-.586.042 4.116 4.117 0 0 0-.574.126 4.116 4.117 0 0 0-.55.205 4.116 4.117 0 0 0-.516.281 4.116 4.117 0 0 0-.47.352 4.116 4.117 0 0 0-.415.416 4.116 4.117 0 0 0-.352.47 4.116 4.117 0 0 0-.282.515 4.116 4.117 0 0 0-.205.551 4.116 4.117 0 0 0-.125.574 4.116 4.117 0 0 0-.042.586 4.116 4.117 0 0 0 .042.586 4.116 4.117 0 0 0 .125.574 4.116 4.117 0 0 0 .205.55 4.116 4.117 0 0 0 .282.516 4.116 4.117 0 0 0 .352.47 4.116 4.117 0 0 0 .214.214 15.364 15.364 0 0 0 1.858-.5 17.31 17.31 0 0 0 1.377-.523 18.398 18.398 0 0 0 3.003-1.626 18.368 18.368 0 0 0 .765-.538 4.116 4.117 0 0 0-.01-.126 4.116 4.117 0 0 0-.024-.201 4.116 4.117 0 0 0-.035-.2 4.116 4.117 0 0 0-.044-.196 4.116 4.117 0 0 0-.054-.195 4.116 4.117 0 0 0-.063-.192 4.116 4.117 0 0 0-.073-.189 4.116 4.117 0 0 0-.082-.184 4.116 4.117 0 0 0-.09-.18 4.116 4.117 0 0 0-.1-.177 4.116 4.117 0 0 0-.108-.17 4.116 4.117 0 0 0-.117-.166 4.116 4.117 0 0 0-.124-.159 4.116 4.117 0 0 0-.132-.153 4.116 4.117 0 0 0-.14-.147 4.116 4.117 0 0 0-.146-.139 4.116 4.117 0 0 0-.153-.132 4.116 4.117 0 0 0-.16-.124 4.116 4.117 0 0 0-.165-.117 4.116 4.117 0 0 0-.17-.107 4.116 4.117 0 0 0-.176-.1 4.116 4.117 0 0 0-.18-.091 4.116 4.117 0 0 0-.185-.082 4.116 4.117 0 0 0-.189-.073 4.116 4.117 0 0 0-.191-.063 4.116 4.117 0 0 0-.195-.054 4.116 4.117 0 0 0-.197-.044 4.116 4.117 0 0 0-.2-.035 4.116 4.117 0 0 0-.2-.025 4.116 4.117 0 0 0-.201-.014 4.116 4.117 0 0 0-.202-.006Z" style="fill:#bcbdc0;stroke:none;stroke-width:.123232;stroke-linecap:round;stroke-dashoffset:5.28;paint-order:stroke markers fill"/><ellipse cx="21.422" cy="11.435" rx="2.555" ry="2.549" style="fill:#fff;fill-opacity:1;stroke:none;stroke-width:.800003;stroke-linecap:round;stroke-dasharray:none;stroke-dashoffset:5.28;stroke-opacity:1;paint-order:stroke markers fill"/><path d="M20.64 13.87c.093-.033.186-.064.28-.098a17.704 17.704 0 0 0 .913-.363 18.436 18.436 0 0 0 1.76-.866c.079-.043.156-.089.233-.133 0-.004.003-.008.004-.011a2.142 2.142 0 0 0 .122-.457 2.072 2.072 0 0 0 .026-.258 2.66 2.66 0 0 0-.012-.426 25.743 25.743 0 0 1-.778.504 17.117 17.117 0 0 1-.78.452 12.463 12.463 0 0 1-.796.392 9.85 9.85 0 0 1-.827.321 8.76 8.76 0 0 1-1.176.303 4.595 4.595 0 0 0 .226.191 3.452 3.452 0 0 0 .261.186 2.822 2.822 0 0 0 .462.235l.082.028z" style="fill:#969696;stroke-width:.800003"/><path d="M20.64 13.87c.03.01.06.022.092.031a2.265 2.265 0 0 0 .91.08 2.6 2.6 0 0 0 .353-.06 3.236 3.236 0 0 0 .51-.166 4.932 4.932 0 0 0 .309-.178 3.296 3.296 0 0 0 .386-.29 2.63 2.63 0 0 0 .38-.422 2.105 2.105 0 0 0 .246-.455c-.078.044-.154.09-.232.133a18.858 18.858 0 0 1-2.216 1.054c-.152.06-.305.119-.459.175-.093.034-.186.065-.28.098z" style="mix-blend-mode:multiply;fill:#a0a0a0;fill-opacity:1;stroke-width:.123232;stroke-linecap:round;stroke-dashoffset:5.28;paint-order:stroke markers fill"/><path d="M25.6 11.246a17.944 17.944 0 0 1-1.584 1.054l-.19.11a2.167 2.167 0 0 1-.367.612 2.486 2.486 0 0 1-.391.375 3.058 3.058 0 0 1-.37.25 5 5 0 0 1-.193.108 3.775 3.775 0 0 1-.51.166 2.84 2.84 0 0 1-.574.074 2.482 2.482 0 0 1-.505-.048 2.268 2.268 0 0 1-.184-.046l-.092-.031c-.061.02-.122.043-.184.064a16.903 16.903 0 0 1-1.408.4c-.15.035-.3.068-.45.099a4.116 4.117 0 0 0 .201.201 4.116 4.117 0 0 0 .229.185 4.116 4.117 0 0 0 .241.167 4.116 4.117 0 0 0 .253.15 4.116 4.117 0 0 0 .263.132 4.116 4.117 0 0 0 .271.113 4.116 4.117 0 0 0 .279.092 4.116 4.117 0 0 0 .284.073 4.116 4.117 0 0 0 .29.052 4.116 4.117 0 0 0 .292.032 4.116 4.117 0 0 0 .294.01 4.116 4.117 0 0 0 .293-.01 4.116 4.117 0 0 0 .292-.032 4.116 4.117 0 0 0 .29-.052 4.116 4.117 0 0 0 .284-.073 4.116 4.117 0 0 0 .28-.092 4.116 4.117 0 0 0 .27-.113 4.116 4.117 0 0 0 .264-.132 4.116 4.117 0 0 0 .252-.15 4.116 4.117 0 0 0 .242-.167 4.116 4.117 0 0 0 .229-.185 4.116 4.117 0 0 0 .215-.2 4.116 4.117 0 0 0 .2-.215 4.116 4.117 0 0 0 .184-.229 4.116 4.117 0 0 0 .168-.241 4.116 4.117 0 0 0 .15-.253 4.116 4.117 0 0 0 .131-.263 4.116 4.117 0 0 0 .113-.271 4.116 4.117 0 0 0 .093-.279 4.116 4.117 0 0 0 .072-.285 4.116 4.117 0 0 0 .052-.29 4.116 4.117 0 0 0 .031-.292 4.116 4.117 0 0 0 .01-.293 4.116 4.117 0 0 0 0-.004 4.116 4.117 0 0 0 0-.004 4.116 4.117 0 0 0 0-.004 4.116 4.117 0 0 0 0-.004 4.116 4.117 0 0 0 0-.004 4.116 4.117 0 0 0 0-.004 4.116 4.117 0 0 0 0-.004 4.116 4.117 0 0 0 0-.005 4.116 4.117 0 0 0 0-.004 4.116 4.117 0 0 0 0-.004 4.116 4.117 0 0 0 0-.004 4.116 4.117 0 0 0 0-.004 4.116 4.117 0 0 0 0-.004 4.116 4.117 0 0 0 0-.004 4.116 4.117 0 0 0 0-.004 4.116 4.117 0 0 0 0-.004 4.116 4.117 0 0 0 0-.004 4.116 4.117 0 0 0 0-.004 4.116 4.117 0 0 0 0-.004 4.116 4.117 0 0 0 0-.004 4.116 4.117 0 0 0 0-.004 4.116 4.117 0 0 0 0-.004 4.116 4.117 0 0 0 0-.004 4.116 4.117 0 0 0 0-.005 4.116 4.117 0 0 0 0-.004 4.116 4.117 0 0 0 0-.004 4.116 4.117 0 0 0 0-.004 4.116 4.117 0 0 0 0-.004 4.116 4.117 0 0 0 0-.004 4.116 4.117 0 0 0-.001-.004 4.116 4.117 0 0 0 0-.004 4.116 4.117 0 0 0 0-.004 4.116 4.117 0 0 0 0-.004 4.116 4.117 0 0 0 0-.005 4.116 4.117 0 0 0 0-.003 4.116 4.117 0 0 0 0-.004 4.116 4.117 0 0 0 0-.004 4.116 4.117 0 0 0 0-.004 4.116 4.117 0 0 0-.001-.004 4.116 4.117 0 0 0 0-.005 4.116 4.117 0 0 0 0-.004 4.116 4.117 0 0 0 0-.004 4.116 4.117 0 0 0 0-.004 4.116 4.117 0 0 0 0-.004 4.116 4.117 0 0 0 0-.004 4.116 4.117 0 0 0 0-.004 4.116 4.117 0 0 0-.001-.004 4.116 4.117 0 0 0 0-.004 4.116 4.117 0 0 0 0-.004 4.116 4.117 0 0 0-.001-.005 4.116 4.117 0 0 0-.006-.075z" style="mix-blend-mode:normal;fill:#666;fill-opacity:1;stroke:none;stroke-width:.123232;stroke-linecap:round;stroke-dashoffset:5.28;paint-order:stroke markers fill"/></g></svg>