<svg xmlns="http://www.w3.org/2000/svg" xml:space="preserve" width="73.017" height="33.665" viewBox="0 0 19.319 8.907"><path d="M72.502 5.392a4.474 4.474 0 0 0-4.06 2.603 4.447 4.447 0 0 0 .686 4.766c.067.072.137.142.21.21a4.47 4.47 0 0 0 3.163 1.328 4.459 4.459 0 0 0 4.452-4.768 4.145 4.145 0 0 0-.248-1.186 4.434 4.434 0 0 0-2.907-2.762 4.473 4.473 0 0 0-1.078-.186 4.476 4.476 0 0 0-.218-.005Z" style="fill:#bcbdc0;fill-opacity:1;stroke:none;stroke-width:.8;stroke-linecap:round;stroke-dasharray:none;stroke-dashoffset:5.28;stroke-opacity:1;paint-order:stroke markers fill" transform="translate(-57.647 -5.392)"/><path d="M72.502 5.392a4.464 4.454 0 0 0-.636.045 4.464 4.454 0 0 0-.622.135 4.464 4.454 0 0 0-.597.222 4.464 4.454 0 0 0-.559.305 4.464 4.454 0 0 0-.51.38 4.464 4.454 0 0 0-.45.45 4.464 4.454 0 0 0-.382.509 4.464 4.454 0 0 0-.305.557 4.464 4.454 0 0 0-.223.595 4.464 4.454 0 0 0-.135.621 4.464 4.454 0 0 0-.045.634 4.464 4.454 0 0 0 .045.634 4.464 4.454 0 0 0 .135.621 4.464 4.454 0 0 0 .223.595 4.464 4.454 0 0 0 .305.558 4.464 4.454 0 0 0 .382.509 4.464 4.454 0 0 0 .209.208 14.771 14.771 0 0 0 2.511-.698 17.092 17.092 0 0 0 1.453-.614 20.627 20.627 0 0 0 .943-.475 24.363 24.363 0 0 0 1.387-.8 33.733 33.733 0 0 0 1.322-.853 4.464 4.454 0 0 0-.01-.122 4.464 4.454 0 0 0-.026-.216 4.464 4.454 0 0 0-.037-.216 4.464 4.454 0 0 0-.048-.213 4.464 4.454 0 0 0-.058-.21 4.464 4.454 0 0 0-.07-.209 4.464 4.454 0 0 0-.078-.203 4.464 4.454 0 0 0-.09-.2 4.464 4.454 0 0 0-.097-.195 4.464 4.454 0 0 0-.109-.19 4.464 4.454 0 0 0-.117-.185 4.464 4.454 0 0 0-.126-.179 4.464 4.454 0 0 0-.135-.172 4.464 4.454 0 0 0-.143-.166 4.464 4.454 0 0 0-.15-.158 4.464 4.454 0 0 0-.16-.15 4.464 4.454 0 0 0-.165-.143 4.464 4.454 0 0 0-.173-.135 4.464 4.454 0 0 0-.18-.126 4.464 4.454 0 0 0-.185-.117 4.464 4.454 0 0 0-.19-.108 4.464 4.454 0 0 0-.196-.098 4.464 4.454 0 0 0-.2-.088 4.464 4.454 0 0 0-.205-.079 4.464 4.454 0 0 0-.207-.069 4.464 4.454 0 0 0-.212-.058 4.464 4.454 0 0 0-.214-.048 4.464 4.454 0 0 0-.215-.037 4.464 4.454 0 0 0-.218-.027 4.464 4.454 0 0 0-.218-.016 4.464 4.454 0 0 0-.22-.005Z" style="fill:#bcbdc0;stroke:none;stroke-width:.799999;stroke-linecap:round;stroke-dashoffset:5.28;paint-order:stroke markers fill" transform="translate(-57.647 -5.392)"/><path d="m72.5 6.204-.002.183-.001-.153v.43l-.005.625-.011-1.071v.118l-.001-.121-.007 3.563-.813-.46-2.297-1.323.362.213-.33-.19.566.335-.58-.333.495.29-.502-.282 1.132.654-.64-.363-.49-.283.222.131-.24-.136.507.294-.503-.286.642.374-.624-.355 2.157 1.257.885.524-3.065 1.771 1.736-.98-1.731 1.005.808-.458-.79.465.058-.033-.062.036.11-.063-.104.06.672-.381-.69.4.372-.21-.361.213.913-.527.727-.414-1.623.96 3.082-1.782.002.212.001.346.005 3.027.004-.42v.382-.114l.001.1.003-.416.006-.556.003.338v.667l.003-.267.002.267.001-.667.003-.338.005.556.003.416.001-.1.001.114v-.382l.003.42.006-3.027v-.346l.003-.212 3.082 1.783-1.623-.961.727.414.913.527-.361-.213.37.21-.688-.4.671.382-.104-.06.11.062-.061-.036.057.033-.79-.465.809.458-1.731-1.004 1.735.98-3.065-1.772.885-.524 2.157-1.257-.624.355.642-.374-.502.286.507-.294-.241.136.221-.13-.489.282-.64.363 1.132-.654-.502.283.495-.291-.58.333.567-.335-.33.19.36-.213-2.296 1.323-.813.46-.007-3.563v.12-.117l-.012 1.1-.004-.622v-.462l-.002.153-.001-.183-.002.541v.068l-.001-.068zm-.973.786.836.567zm.014 0 .837.567zm1.921 0-.836.567zm.014 0-.836.567zm-2.975.57.072 1.008zm4.002 0-.073 1.008zm-4.061 1.235-.909.442Zm4.12 0 .908.442zm-5.017 1.62.908.442zm5.914 0-.908.442zm-4.875.67-.072 1.008zm3.835 0 .073 1.008zm-2.058 1.059-.836.567zm.019 0-.837.567zm.244 0 .836.567zm.019 0 .836.567z" style="fill:none;stroke:#02a2cb;stroke-width:.8;stroke-linecap:round;stroke-linejoin:round;stroke-dasharray:none;stroke-dashoffset:5.28;stroke-opacity:1;paint-order:stroke markers fill" transform="translate(-57.647 -5.392)"/><path d="M76.953 9.53a44.54 44.54 0 0 1-.865.568 33.72 33.72 0 0 1-1.379.83 24.39 24.39 0 0 1-1.408.73 19.127 19.127 0 0 1-.962.423 17.102 17.102 0 0 1-1.493.526 15.226 15.226 0 0 1-1.51.363 4.464 4.454 0 0 0 3.165 1.329 4.464 4.454 0 0 0 4.464-4.454 4.464 4.454 0 0 0-.012-.315zm-8.475 2.232a4.464 4.454 0 0 0 .268.49 4.464 4.454 0 0 1-.268-.49z" style="opacity:.536026;mix-blend-mode:multiply;fill:#969696;fill-opacity:1;stroke:none;stroke-width:.799999;stroke-linecap:round;stroke-dasharray:none;stroke-dashoffset:5.28;stroke-opacity:1;paint-order:stroke markers fill" transform="translate(-57.647 -5.392)"/><path d="M62.11 5.392a4.474 4.474 0 0 0-4.06 2.603 4.447 4.447 0 0 0 .687 4.766c.067.072.137.142.21.21a4.47 4.47 0 0 0 3.163 1.328 4.459 4.459 0 0 0 4.452-4.768 4.145 4.145 0 0 0-.248-1.186 4.434 4.434 0 0 0-2.907-2.762 4.473 4.473 0 0 0-1.077-.186 4.476 4.476 0 0 0-.22-.005Z" style="fill:#bcbdc0;fill-opacity:1;stroke:none;stroke-width:.8;stroke-linecap:round;stroke-dasharray:none;stroke-dashoffset:5.28;stroke-opacity:1;paint-order:stroke markers fill" transform="translate(-57.647 -5.392)"/><path d="M62.11 5.392a4.464 4.454 0 0 0-.634.045 4.464 4.454 0 0 0-.623.135 4.464 4.454 0 0 0-.597.222 4.464 4.454 0 0 0-.559.305 4.464 4.454 0 0 0-.51.38 4.464 4.454 0 0 0-.45.45 4.464 4.454 0 0 0-.382.508 4.464 4.454 0 0 0-.305.558 4.464 4.454 0 0 0-.223.595 4.464 4.454 0 0 0-.135.621 4.464 4.454 0 0 0-.045.634 4.464 4.454 0 0 0 .045.634 4.464 4.454 0 0 0 .135.621 4.464 4.454 0 0 0 .223.595 4.464 4.454 0 0 0 .305.558 4.464 4.454 0 0 0 .382.509 4.464 4.454 0 0 0 .21.208 14.771 14.771 0 0 0 2.51-.698 17.092 17.092 0 0 0 1.453-.614 20.627 20.627 0 0 0 .943-.475 24.363 24.363 0 0 0 1.387-.8 33.733 33.733 0 0 0 1.322-.853 4.464 4.454 0 0 0-.01-.122 4.464 4.454 0 0 0-.025-.216 4.464 4.454 0 0 0-.038-.216 4.464 4.454 0 0 0-.048-.213 4.464 4.454 0 0 0-.058-.21 4.464 4.454 0 0 0-.07-.209 4.464 4.454 0 0 0-.078-.203 4.464 4.454 0 0 0-.089-.2 4.464 4.454 0 0 0-.098-.195 4.464 4.454 0 0 0-.108-.19 4.464 4.454 0 0 0-.118-.185 4.464 4.454 0 0 0-.126-.179 4.464 4.454 0 0 0-.134-.172 4.464 4.454 0 0 0-.144-.166 4.464 4.454 0 0 0-.15-.158 4.464 4.454 0 0 0-.16-.15 4.464 4.454 0 0 0-.165-.143 4.464 4.454 0 0 0-.173-.135 4.464 4.454 0 0 0-.18-.126 4.464 4.454 0 0 0-.185-.117 4.464 4.454 0 0 0-.19-.108 4.464 4.454 0 0 0-.196-.098 4.464 4.454 0 0 0-.2-.088 4.464 4.454 0 0 0-.204-.079 4.464 4.454 0 0 0-.208-.069 4.464 4.454 0 0 0-.212-.058 4.464 4.454 0 0 0-.214-.048 4.464 4.454 0 0 0-.215-.037 4.464 4.454 0 0 0-.218-.027 4.464 4.454 0 0 0-.218-.016 4.464 4.454 0 0 0-.22-.005z" style="fill:#bcbdc0;stroke:none;stroke-width:.799999;stroke-linecap:round;stroke-dashoffset:5.28;paint-order:stroke markers fill" transform="translate(-57.647 -5.392)"/><path d="m62.109 6.204-.001.183-.002-.153v.43l-.005.625-.011-1.071v.118l-.001-.121-.006 3.563-.814-.46-2.297-1.323.362.213-.33-.19.566.335-.58-.333.495.29-.502-.282 1.132.654-.64-.363-.489-.283.221.131-.24-.136.507.294-.503-.286.642.374-.624-.355 2.157 1.257.885.524-3.065 1.771 1.736-.98-1.731 1.005.808-.458-.79.465.058-.033-.062.036.11-.063-.104.06.672-.381-.69.4.372-.21-.361.213.913-.527.727-.414-1.623.96 3.082-1.782.002.212.001.346.005 3.027.004-.42v.382-.114l.001.1.003-.416.006-.556.003.338v.667l.003-.267.002.267.001-.667.003-.338.006.556.003.416v-.1l.001.114v-.382l.004.42.005-3.027v-.346l.003-.212 3.082 1.783-1.623-.961.727.414.913.527-.36-.213.37.21-.689-.4.671.382-.103-.06.11.062-.062-.036.057.033-.79-.465.809.458-1.731-1.004 1.735.98-3.065-1.772.886-.524 2.156-1.257-.624.355.642-.374-.502.286.507-.294-.24.136.22-.13-.489.282-.64.363 1.132-.654-.502.283.495-.291-.58.333.567-.335-.33.19.361-.213-2.297 1.323-.813.46-.007-3.563v.12-.117l-.012 1.1-.004-.622v-.462l-.002.153-.001-.183-.002.541v.068l-.001-.068zm-.973.786.836.567zm.014 0 .837.567zm1.921 0-.836.567zm.014 0-.836.567zm-2.975.57.072 1.008zm4.002 0-.072 1.008zM60.05 8.794l-.909.442zm4.12 0 .908.442zm-5.017 1.62.908.442zm5.914 0-.908.442zm-4.875.67-.072 1.008zm3.836 0 .072 1.008zm-2.06 1.059-.835.567zm.02 0-.837.567zm.244 0 .836.567zm.019 0 .836.567z" style="fill:none;stroke:#02a2cb;stroke-width:.8;stroke-linecap:round;stroke-linejoin:round;stroke-dasharray:none;stroke-dashoffset:5.28;stroke-opacity:1;paint-order:stroke markers fill" transform="translate(-57.647 -5.392)"/><path d="M66.562 9.53a44.54 44.54 0 0 1-.865.568 33.72 33.72 0 0 1-1.379.83 24.39 24.39 0 0 1-1.408.73 19.127 19.127 0 0 1-.962.423 17.102 17.102 0 0 1-1.493.526 15.226 15.226 0 0 1-1.51.363 4.464 4.454 0 0 0 3.165 1.329 4.464 4.454 0 0 0 4.465-4.454 4.464 4.454 0 0 0-.013-.315zm-8.475 2.232a4.464 4.454 0 0 0 .268.49 4.464 4.454 0 0 1-.268-.49z" style="opacity:.536026;mix-blend-mode:multiply;fill:#969696;fill-opacity:1;stroke:none;stroke-width:.799999;stroke-linecap:round;stroke-dasharray:none;stroke-dashoffset:5.28;stroke-opacity:1;paint-order:stroke markers fill" transform="translate(-57.647 -5.392)"/></svg>